<svg width="16" height="16" viewBox="0 0 16 16" fill="none" xmlns="http://www.w3.org/2000/svg">
<path d="M14.72 0.000458977H1.37C1.19793 -0.00760315 1.02595 0.0183518 0.863921 0.0768383C0.70189 0.135325 0.552986 0.225194 0.425733 0.341302C0.298479 0.457409 0.195374 0.597475 0.122321 0.753481C0.0492681 0.909486 0.00770114 1.07837 0 1.25046V14.6305C0.0100803 14.9906 0.157655 15.3333 0.412427 15.588C0.6672 15.8428 1.00984 15.9904 1.37 16.0005H14.72C15.0701 15.9849 15.4002 15.8327 15.6395 15.5766C15.8788 15.3205 16.0082 14.9808 16 14.6305V1.25046C16.0029 1.08296 15.9715 0.916647 15.9078 0.761711C15.8441 0.606775 15.7494 0.466484 15.6295 0.349442C15.5097 0.2324 15.3672 0.141074 15.2108 0.081064C15.0544 0.0210539 14.8874 -0.00637527 14.72 0.000458977ZM5 13.3405H2.67V6.21046H5V13.3405ZM3.89 5.13046C3.72741 5.13612 3.5654 5.10811 3.41416 5.04817C3.26291 4.98822 3.12569 4.89766 3.01113 4.78215C2.89656 4.66664 2.80711 4.52869 2.74841 4.37696C2.6897 4.22523 2.66301 4.063 2.67 3.90046C2.66281 3.73616 2.69004 3.57218 2.74995 3.41903C2.80986 3.26587 2.90112 3.12693 3.01787 3.01112C3.13463 2.8953 3.2743 2.80517 3.42793 2.74651C3.58157 2.68784 3.74577 2.66194 3.91 2.67046C4.07259 2.66479 4.2346 2.69281 4.38584 2.75275C4.53709 2.81269 4.67431 2.90326 4.78887 3.01877C4.90344 3.13428 4.99289 3.27223 5.05159 3.42396C5.1103 3.57569 5.13699 3.73792 5.13 3.90046C5.13719 4.06475 5.10996 4.22874 5.05005 4.38189C4.99014 4.53505 4.89888 4.67399 4.78213 4.7898C4.66537 4.90562 4.5257 4.99575 4.37207 5.05441C4.21843 5.11308 4.05423 5.13898 3.89 5.13046ZM13.34 13.3405H11V9.44046C11 8.51046 10.67 7.87046 9.84 7.87046C9.58216 7.8727 9.33132 7.95463 9.12185 8.10501C8.91239 8.25539 8.75457 8.46687 8.67 8.71046C8.60414 8.89287 8.5769 9.08697 8.59 9.28046V13.3405H6.29V6.21046H8.59V7.21046C8.79448 6.83479 9.09884 6.52297 9.46943 6.30943C9.84003 6.0959 10.2624 5.98897 10.69 6.00046C12.2 6.00046 13.34 7.00046 13.34 9.13046V13.3405Z" fill="black"/>
</svg>
