<svg width="165" height="62" viewBox="0 0 165 62" fill="none" xmlns="http://www.w3.org/2000/svg">
<g clip-path="url(#clip0_124_499)">
<path d="M67.6235 29.6158V30.7412H58.3125V16.6733H59.5557V29.6158H67.6235Z" fill="white"/>
<path d="M70.7529 16.6733V25.5586C70.7529 26.172 70.8724 26.7263 71.0744 27.2214C71.2735 27.7166 71.5665 28.1415 71.9534 28.496C72.3403 28.8505 72.8012 29.1234 73.336 29.3119C73.8737 29.5004 74.6417 29.5117 74.8608 29.5117C75.0798 29.5117 75.8508 29.5004 76.3941 29.3119C76.9375 29.1234 77.3983 28.8533 77.7767 28.496C78.155 28.1415 78.4481 27.7166 78.6557 27.2214C78.8634 26.7263 78.9658 26.172 78.9658 25.5586V16.6733H80.2118V25.5783C80.2118 26.3577 80.0781 27.0667 79.8164 27.6998C79.5518 28.3328 79.1735 28.8786 78.6785 29.3316C78.1835 29.7846 77.5918 30.1335 76.8977 30.3755C76.2035 30.6202 75.4781 30.7412 74.8608 30.7412C74.2435 30.7412 73.5152 30.6202 72.8239 30.3755C72.1298 30.1307 71.5381 29.7846 71.0431 29.3316C70.551 28.8786 70.1698 28.3356 69.9052 27.6998C69.6406 27.0667 69.5098 26.3577 69.5098 25.5783V16.6733H70.7558H70.7529Z" fill="white"/>
<path d="M94.1797 16.6733V30.7412H92.9366V18.9383L89.2554 28.3019H88.0122L84.3027 18.9439V30.7412H83.0566V16.6733H84.7379L88.6267 26.8951L92.5212 16.6733H94.1797Z" fill="white"/>
<path d="M119.369 16.6733V30.7412H118.018L109.532 18.6372V30.7412H108.289V16.6733H109.64L118.126 28.8027V16.6733H119.369Z" fill="white"/>
<path d="M128.92 16.6733H127.48L122.334 30.7412H123.643L125.025 27.2805H131.358L132.74 30.7412H134.072L128.922 16.6733H128.92ZM125.415 26.2029L128.189 18.1702L130.959 26.2029H125.412H125.415Z" fill="white"/>
<path d="M143.698 24.4922C144.611 24.2699 145.345 23.8507 145.903 23.2317C146.526 22.5395 146.836 21.6673 146.836 20.6207C146.836 19.9961 146.73 19.4446 146.526 18.9522C146.318 18.4655 146.016 18.0491 145.624 17.7114C145.231 17.371 144.765 17.1121 144.227 16.9349C143.692 16.7604 143.1 16.6704 142.458 16.6704H136.879V30.7383H138.125V24.6272H142.395L145.698 30.7383H147.157L143.698 24.4865V24.4922ZM142.369 23.5074H138.122V17.779H142.369C143.385 17.779 144.164 18.0378 144.711 18.5527C145.251 19.0704 145.524 19.7625 145.524 20.6235C145.524 21.4844 145.251 22.1653 144.711 22.7027C144.167 23.2373 143.388 23.5074 142.369 23.5074Z" fill="white"/>
<path d="M153.501 25.1845L148.395 16.6763H149.811L154.124 23.9128L158.437 16.6763H159.853L154.747 25.207V30.7442H153.504V25.1845H153.501Z" fill="white"/>
<path d="M67.7373 38.1578C67.5324 37.6682 67.2423 37.2434 66.8696 36.8832C66.4998 36.5231 66.0531 36.2474 65.5325 36.056C65.0091 35.8675 64.4259 35.769 63.783 35.769H58.3125V49.8369H59.5585V43.8525H63.783C64.4259 43.8525 65.0091 43.754 65.5325 43.557C66.0531 43.3601 66.4998 43.0815 66.8696 42.7298C67.2423 42.3781 67.5324 41.9505 67.7373 41.4553C67.9449 40.9629 68.0502 40.4086 68.0502 39.8037C68.0502 39.1988 67.9449 38.6473 67.7373 38.1606V38.1578ZM65.9593 41.9223C65.4358 42.4597 64.682 42.7298 63.6948 42.7298H59.5557V36.8945H63.6948C64.682 36.8945 65.4358 37.1618 65.9593 37.6907C66.4799 38.2197 66.7416 38.9259 66.7416 39.8009C66.7416 40.6759 66.4799 41.3849 65.9593 41.9195V41.9223Z" fill="white"/>
<path d="M75.5798 35.769H74.1403L68.9941 49.8369H70.2999L71.6853 46.379H78.0178L79.4003 49.8369H80.7289L75.5826 35.769H75.5798ZM72.0779 45.2958L74.8487 37.2659L77.6167 45.2958H72.075H72.0779Z" fill="white"/>
<path d="M90.7222 43.5877C91.6353 43.3655 92.3665 42.9434 92.924 42.3244C93.547 41.6323 93.8571 40.7629 93.8571 39.7134C93.8571 39.0916 93.7519 38.5374 93.547 38.0478C93.3394 37.5582 93.0378 37.1446 92.6424 36.8042C92.2527 36.4666 91.7861 36.2077 91.2485 36.0305C90.7108 35.8532 90.1219 35.7632 89.479 35.7632H83.9004V49.8311H85.1464V43.72H89.4136L92.7192 49.8311H94.1786L90.7222 43.5821V43.5877ZM89.3937 42.6002H85.1464V36.8745H89.3937C90.4092 36.8745 91.1887 37.1334 91.7349 37.6483C92.2754 38.1632 92.5485 38.8553 92.5485 39.7163C92.5485 40.5772 92.2754 41.2581 91.7349 41.7955C91.1916 42.3329 90.4121 42.6002 89.3937 42.6002Z" fill="white"/>
<path d="M105.766 35.769H96.7285V36.8945H100.623V49.8369H101.869V36.8945H105.766V35.769Z" fill="white"/>
<path d="M119.369 35.769V49.8369H118.018L109.532 37.7301V49.8369H108.289V35.769H109.64L118.126 47.8984V35.769H119.369Z" fill="white"/>
<path d="M132.71 48.7143V49.8369H123.697V35.769H132.493V36.8945H124.943V42.0293H131.486V43.1547H124.943V48.7143H132.71Z" fill="white"/>
<path d="M143.701 43.5877C144.614 43.3655 145.345 42.9434 145.903 42.3244C146.526 41.6323 146.836 40.7629 146.836 39.7134C146.836 39.0916 146.73 38.5374 146.526 38.0478C146.318 37.5582 146.016 37.1446 145.624 36.8042C145.231 36.4666 144.765 36.2077 144.227 36.0305C143.689 35.8532 143.1 35.7632 142.458 35.7632H136.879V49.8311H138.125V43.72H142.392L145.698 49.8311H147.157L143.701 43.5821V43.5877ZM142.372 42.6002H138.125V36.8745H142.372C143.388 36.8745 144.167 37.1334 144.713 37.6483C145.254 38.1632 145.527 38.8553 145.527 39.7163C145.527 40.5772 145.254 41.2581 144.713 41.7955C144.17 42.3329 143.391 42.6002 142.372 42.6002Z" fill="white"/>
<path d="M150.205 46.4774C150.637 47.2342 151.186 47.8364 151.852 48.2865C152.515 48.7367 153.374 48.9618 154.429 48.9618C154.876 48.9618 155.3 48.8999 155.695 48.7789C156.093 48.6579 156.443 48.4863 156.745 48.264C157.049 48.0417 157.291 47.7632 157.47 47.4284C157.65 47.0936 157.741 46.725 157.741 46.3255C157.741 45.9259 157.658 45.5827 157.49 45.2985C157.325 45.0143 157.086 44.7527 156.776 44.5163C156.466 44.28 156.074 44.0633 155.596 43.8636C155.118 43.6638 154.572 43.4556 153.949 43.2418C153.357 43.0561 152.805 42.8479 152.293 42.62C151.781 42.3921 151.328 42.1276 150.939 41.8266C150.549 41.5255 150.245 41.171 150.028 40.7546C149.812 40.341 149.704 39.8402 149.704 39.2549C149.704 38.6697 149.829 38.0986 150.082 37.6259C150.336 37.1532 150.668 36.7621 151.078 36.447C151.491 36.1319 151.96 35.8927 152.486 35.7295C153.013 35.5663 153.545 35.4819 154.079 35.4819C154.643 35.4819 155.166 35.5523 155.65 35.6958C156.133 35.8393 156.563 36.025 156.938 36.2529C157.314 36.4808 157.647 36.748 157.934 37.0575C158.221 37.3642 158.46 37.6765 158.648 37.9888L157.672 38.7175C157.339 38.1745 156.867 37.6934 156.253 37.2714C155.638 36.8493 154.913 36.6383 154.077 36.6383C153.673 36.6383 153.283 36.6946 152.907 36.8099C152.532 36.9253 152.199 37.0885 151.912 37.3023C151.621 37.5162 151.391 37.7834 151.218 38.107C151.044 38.4278 150.959 38.7963 150.959 39.2099C150.959 39.6235 151.05 39.9808 151.229 40.2819C151.408 40.5829 151.647 40.8362 151.943 41.0416C152.239 41.2498 152.583 41.4298 152.973 41.5874C153.362 41.745 153.761 41.8941 154.165 42.0376C154.958 42.2936 155.655 42.5581 156.256 42.831C156.856 43.1039 157.357 43.4022 157.761 43.7313C158.164 44.0605 158.472 44.4319 158.682 44.8455C158.893 45.2591 158.995 45.7459 158.995 46.303C158.995 46.9304 158.861 47.4875 158.594 47.9742C158.327 48.461 157.977 48.8605 157.544 49.1728C157.112 49.4879 156.628 49.7215 156.093 49.879C155.559 50.0366 155.018 50.1154 154.469 50.1154C153.82 50.1154 153.22 50.0366 152.671 49.879C152.122 49.7215 151.627 49.5076 151.186 49.2375C150.745 48.9674 150.364 48.6523 150.037 48.295C149.713 47.9376 149.448 47.5606 149.246 47.1583L150.199 46.4718L150.205 46.4774Z" fill="white"/>
<path d="M101.868 17.7988V29.6158H105.247V30.7412H97.2422V29.6158H100.622V17.7988H97.2422V16.6733H105.247V17.7988H101.868Z" fill="white"/>
<path d="M46.247 0.703613L46.1588 28.1641L34.1111 35.0883L34.1339 29.3627L15.1934 18.5473L46.247 0.703613Z" fill="#F15A24"/>
<path d="M25.2187 33.8308L25.1334 61.297L0.710938 47.3529L0.796281 19.8867L25.2187 33.8308Z" fill="#F15A24"/>
<path d="M161.333 48.1066H160.812V47.9209H162.084V48.1066H161.564V49.8369H161.333V48.1066Z" fill="white"/>
<path d="M162.574 47.9209H162.833L163.43 48.9647L164.028 47.9209H164.287V49.8369H164.056V48.2782L163.49 49.2573H163.334L162.773 48.281V49.8369H162.568V47.9209H162.574Z" fill="white"/>
</g>
<defs>
<clipPath id="clip0_124_499">
<rect width="165" height="62" fill="white"/>
</clipPath>
</defs>
</svg>
