<svg width="165" height="62" viewBox="0 0 165 62" fill="none" xmlns="http://www.w3.org/2000/svg">
<g clip-path="url(#clip0_124_526)">
<path d="M67.6235 29.6153V30.7407H58.3125V16.6729H59.5557V29.6153H67.6235Z" fill="black"/>
<path d="M70.7529 16.6738V25.5591C70.7529 26.1725 70.8724 26.7267 71.0744 27.2219C71.2735 27.7171 71.5665 28.142 71.9534 28.4965C72.3403 28.851 72.8012 29.1239 73.336 29.3124C73.8737 29.5009 74.6417 29.5122 74.8608 29.5122C75.0798 29.5122 75.8508 29.5009 76.3941 29.3124C76.9375 29.1239 77.3983 28.8538 77.7767 28.4965C78.155 28.142 78.4481 27.7171 78.6557 27.2219C78.8634 26.7267 78.9658 26.1725 78.9658 25.5591V16.6738H80.2118V25.5788C80.2118 26.3582 80.0781 27.0672 79.8164 27.7002C79.5518 28.3333 79.1735 28.8791 78.6785 29.3321C78.1835 29.7851 77.5918 30.134 76.8977 30.376C76.2035 30.6207 75.4781 30.7417 74.8608 30.7417C74.2435 30.7417 73.5152 30.6207 72.8239 30.376C72.1298 30.1312 71.5381 29.7851 71.0431 29.3321C70.551 28.8791 70.1698 28.3361 69.9052 27.7002C69.6406 27.0672 69.5098 26.3582 69.5098 25.5788V16.6738H70.7558H70.7529Z" fill="black"/>
<path d="M94.1797 16.6738V30.7417H92.9366V18.9388L89.2554 28.3023H88.0122L84.3027 18.9444V30.7417H83.0566V16.6738H84.7379L88.6267 26.8956L92.5212 16.6738H94.1797Z" fill="black"/>
<path d="M119.369 16.6738V30.7417H118.018L109.532 18.6377V30.7417H108.289V16.6738H109.64L118.126 28.8032V16.6738H119.369Z" fill="black"/>
<path d="M128.92 16.6729H127.48L122.334 30.7407H123.643L125.025 27.28H131.358L132.74 30.7407H134.072L128.922 16.6729H128.92ZM125.415 26.2024L128.189 18.1697L130.959 26.2024H125.412H125.415Z" fill="black"/>
<path d="M143.698 24.4917C144.611 24.2694 145.345 23.8502 145.903 23.2312C146.526 22.539 146.836 21.6668 146.836 20.6202C146.836 19.9956 146.73 19.4441 146.526 18.9517C146.318 18.465 146.016 18.0486 145.624 17.7109C145.231 17.3705 144.765 17.1117 144.227 16.9344C143.692 16.76 143.1 16.6699 142.458 16.6699H136.879V30.7378H138.125V24.6267H142.395L145.698 30.7378H147.157L143.698 24.486V24.4917ZM142.369 23.5069H138.122V17.7785H142.369C143.385 17.7785 144.164 18.0373 144.711 18.5522C145.251 19.0699 145.524 19.762 145.524 20.623C145.524 21.484 145.251 22.1648 144.711 22.7022C144.167 23.2368 143.388 23.5069 142.369 23.5069Z" fill="black"/>
<path d="M153.501 25.184L148.395 16.6758H149.811L154.124 23.9123L158.437 16.6758H159.853L154.747 25.2065V30.7437H153.504V25.184H153.501Z" fill="black"/>
<path d="M67.7373 38.1573C67.5324 37.6677 67.2423 37.2429 66.8696 36.8827C66.4998 36.5226 66.0531 36.2469 65.5325 36.0555C65.0091 35.867 64.4259 35.7686 63.783 35.7686H58.3125V49.8364H59.5585V43.852H63.783C64.4259 43.852 65.0091 43.7535 65.5325 43.5565C66.0531 43.3596 66.4998 43.081 66.8696 42.7293C67.2423 42.3776 67.5324 41.95 67.7373 41.4548C67.9449 40.9624 68.0502 40.4081 68.0502 39.8032C68.0502 39.1983 67.9449 38.6468 67.7373 38.1601V38.1573ZM65.9593 41.9218C65.4358 42.4592 64.682 42.7293 63.6948 42.7293H59.5557V36.894H63.6948C64.682 36.894 65.4358 37.1613 65.9593 37.6902C66.4799 38.2192 66.7416 38.9254 66.7416 39.8004C66.7416 40.6754 66.4799 41.3845 65.9593 41.919V41.9218Z" fill="black"/>
<path d="M75.5798 35.7695H74.1403L68.9941 49.8374H70.2999L71.6853 46.3795H78.0178L79.4003 49.8374H80.7289L75.5826 35.7695H75.5798ZM72.0779 45.2963L74.8487 37.2664L77.6167 45.2963H72.075H72.0779Z" fill="black"/>
<path d="M90.7222 43.5882C91.6353 43.366 92.3665 42.9439 92.924 42.3249C93.547 41.6328 93.8571 40.7634 93.8571 39.7139C93.8571 39.0921 93.7519 38.5379 93.547 38.0483C93.3394 37.5587 93.0378 37.1451 92.6424 36.8047C92.2527 36.4671 91.7861 36.2082 91.2485 36.031C90.7108 35.8537 90.1219 35.7637 89.479 35.7637H83.9004V49.8316H85.1464V43.7205H89.4136L92.7192 49.8316H94.1786L90.7222 43.5826V43.5882ZM89.3937 42.6007H85.1464V36.875H89.3937C90.4092 36.875 91.1887 37.1339 91.7349 37.6488C92.2754 38.1637 92.5485 38.8558 92.5485 39.7167C92.5485 40.5777 92.2754 41.2586 91.7349 41.796C91.1916 42.3334 90.4121 42.6007 89.3937 42.6007Z" fill="black"/>
<path d="M105.766 35.7695H96.7285V36.895H100.623V49.8374H101.869V36.895H105.766V35.7695Z" fill="black"/>
<path d="M119.369 35.7695V49.8374H118.018L109.532 37.7306V49.8374H108.289V35.7695H109.64L118.126 47.8989V35.7695H119.369Z" fill="black"/>
<path d="M132.71 48.7148V49.8374H123.697V35.7695H132.493V36.895H124.943V42.0297H131.486V43.1552H124.943V48.7148H132.71Z" fill="black"/>
<path d="M143.701 43.5882C144.614 43.366 145.345 42.9439 145.903 42.3249C146.526 41.6328 146.836 40.7634 146.836 39.7139C146.836 39.0921 146.73 38.5379 146.526 38.0483C146.318 37.5587 146.016 37.1451 145.624 36.8047C145.231 36.4671 144.765 36.2082 144.227 36.031C143.689 35.8537 143.1 35.7637 142.458 35.7637H136.879V49.8316H138.125V43.7205H142.392L145.698 49.8316H147.157L143.701 43.5826V43.5882ZM142.372 42.6007H138.125V36.875H142.372C143.388 36.875 144.167 37.1339 144.713 37.6488C145.254 38.1637 145.527 38.8558 145.527 39.7167C145.527 40.5777 145.254 41.2586 144.713 41.796C144.17 42.3334 143.391 42.6007 142.372 42.6007Z" fill="black"/>
<path d="M150.205 46.4779C150.637 47.2347 151.186 47.8368 151.852 48.287C152.515 48.7372 153.374 48.9623 154.429 48.9623C154.876 48.9623 155.3 48.9004 155.695 48.7794C156.093 48.6584 156.443 48.4868 156.745 48.2645C157.049 48.0422 157.291 47.7637 157.47 47.4289C157.65 47.0941 157.741 46.7255 157.741 46.3259C157.741 45.9264 157.658 45.5832 157.49 45.299C157.325 45.0148 157.086 44.7532 156.776 44.5168C156.466 44.2805 156.074 44.0638 155.596 43.8641C155.118 43.6643 154.572 43.4561 153.949 43.2423C153.357 43.0566 152.805 42.8484 152.293 42.6205C151.781 42.3926 151.328 42.1281 150.939 41.827C150.549 41.526 150.245 41.1715 150.028 40.7551C149.812 40.3415 149.704 39.8407 149.704 39.2554C149.704 38.6702 149.829 38.099 150.082 37.6264C150.336 37.1537 150.668 36.7626 151.078 36.4475C151.491 36.1324 151.96 35.8932 152.486 35.73C153.013 35.5668 153.545 35.4824 154.079 35.4824C154.643 35.4824 155.166 35.5528 155.65 35.6963C156.133 35.8397 156.563 36.0254 156.938 36.2533C157.314 36.4812 157.647 36.7485 157.934 37.058C158.221 37.3647 158.46 37.677 158.648 37.9893L157.672 38.718C157.339 38.175 156.867 37.6939 156.253 37.2719C155.638 36.8498 154.913 36.6388 154.077 36.6388C153.673 36.6388 153.283 36.6951 152.907 36.8104C152.532 36.9258 152.199 37.089 151.912 37.3028C151.621 37.5166 151.391 37.7839 151.218 38.1075C151.044 38.4282 150.959 38.7968 150.959 39.2104C150.959 39.624 151.05 39.9813 151.229 40.2824C151.408 40.5834 151.647 40.8367 151.943 41.0421C152.239 41.2503 152.583 41.4303 152.973 41.5879C153.362 41.7454 153.761 41.8946 154.165 42.0381C154.958 42.2941 155.655 42.5586 156.256 42.8315C156.856 43.1044 157.357 43.4026 157.761 43.7318C158.164 44.061 158.472 44.4324 158.682 44.846C158.893 45.2596 158.995 45.7464 158.995 46.3034C158.995 46.9309 158.861 47.488 158.594 47.9747C158.327 48.4615 157.977 48.861 157.544 49.1733C157.112 49.4884 156.628 49.7219 156.093 49.8795C155.559 50.0371 155.018 50.1158 154.469 50.1158C153.82 50.1158 153.22 50.0371 152.671 49.8795C152.122 49.7219 151.627 49.5081 151.186 49.238C150.745 48.9679 150.364 48.6528 150.037 48.2955C149.713 47.9381 149.448 47.5611 149.246 47.1588L150.199 46.4723L150.205 46.4779Z" fill="black"/>
<path d="M101.868 17.7993V29.6163H105.247V30.7417H97.2422V29.6163H100.622V17.7993H97.2422V16.6738H105.247V17.7993H101.868Z" fill="black"/>
<path d="M46.247 0.703125L46.1588 28.1636L34.1111 35.0879L34.1339 29.3622L15.1934 18.5468L46.247 0.703125Z" fill="#F15A24"/>
<path d="M25.2187 33.8298L25.1334 61.296L0.710938 47.3519L0.796281 19.8857L25.2187 33.8298Z" fill="#F15A24"/>
<path d="M161.333 48.1066H160.812V47.9209H162.084V48.1066H161.564V49.8369H161.333V48.1066Z" fill="black"/>
<path d="M162.574 47.9209H162.833L163.43 48.9647L164.028 47.9209H164.287V49.8369H164.056V48.2782L163.49 49.2573H163.334L162.773 48.281V49.8369H162.568V47.9209H162.574Z" fill="black"/>
</g>
<defs>
<clipPath id="clip0_124_526">
<rect width="165" height="62" fill="white"/>
</clipPath>
</defs>
</svg>
