<svg width="118" height="44" viewBox="0 0 118 44" fill="none" xmlns="http://www.w3.org/2000/svg">
<g clip-path="url(#clip0_2022_60)">
<path d="M100.106 25.4615C99.1984 25.4615 98.7209 25.0183 98.7209 24.2696C98.7404 22.9595 100.058 22.4965 102.264 22.2306V23.0678C102.264 24.6735 101.261 25.4615 100.106 25.4615ZM68.9811 25.3039C67.5294 25.3039 66.6125 24.2105 66.6125 22.1124C66.6125 19.9847 67.5486 18.8419 68.9811 18.8419C70.3946 18.8419 71.34 19.9847 71.34 22.1124C71.34 24.2105 70.4231 25.3039 68.9811 25.3039ZM89.9154 25.3826C88.4734 25.3826 87.5184 24.2498 87.5184 22.0729C87.5184 19.8961 88.4734 18.7434 89.9154 18.7434C91.3769 18.7434 92.2936 19.7482 92.2936 22.0729C92.2936 24.3977 91.3769 25.3826 89.9154 25.3826ZM56.7277 27.1064H59.2682V22.9397C59.2682 20.4575 60.1277 19.5217 62.1907 19.5217C62.5536 19.5217 62.9166 19.5413 63.2605 19.5906V16.8916C63.0503 16.8621 62.8401 16.8522 62.6491 16.8522C60.7964 16.8522 59.7554 17.9849 59.2206 19.2951V17.0393H56.7278L56.7277 27.1064ZM79.3717 27.3923C82.1128 27.3923 83.7555 26.1018 83.7555 24.1119C83.7555 22.3586 82.4375 21.3834 80.4129 20.9796L79.1137 20.7333C77.987 20.5068 77.6913 20.2408 77.6913 19.6596C77.6913 19.0389 78.216 18.5957 79.1999 18.5957C80.2506 18.5957 80.9666 19.2164 81.2723 20.0831L83.3925 19.1178C82.9439 17.9357 81.6353 16.7438 79.3144 16.7438C76.879 16.7339 75.2269 18.0243 75.2458 19.8959C75.2747 21.8266 76.3631 22.4965 78.4456 22.9397L79.7724 23.2154C80.7854 23.4223 81.1289 23.7967 81.1289 24.3779C81.1289 25.0477 80.5369 25.4811 79.4862 25.4811C77.9203 25.4811 77.3566 24.5749 77.1754 23.7475L74.8545 24.5158C75.2653 26.2988 77.1181 27.3923 79.3717 27.3923ZM68.981 27.4217C71.8842 27.4118 73.9856 25.2348 73.9856 22.0729C73.9856 18.9307 71.8843 16.7438 68.981 16.7438C66.0776 16.7438 63.9764 18.9307 63.967 22.0729C63.967 25.1363 66.1159 27.4217 68.981 27.4217ZM99.2368 27.4217C100.765 27.4217 101.873 26.6139 102.541 25.4714C102.589 26.5549 103.181 27.1065 104.298 27.1065H106.256V25.0675H105.359C104.843 25.0675 104.776 24.9789 104.776 24.4666V20.556C104.776 18.0442 103.276 16.7438 100.536 16.7438C97.8709 16.724 96.171 18.2016 95.9992 19.7581L98.3107 20.3294C98.568 19.3344 99.2563 18.6844 100.555 18.6844C101.72 18.6844 102.264 19.2164 102.264 20.1915V20.556C100.66 20.7135 99.3418 21.0189 98.3201 21.4819C96.9448 22.0532 96.1332 23.0481 96.1332 24.5257C96.1332 26.2691 97.4412 27.4217 99.2368 27.4217ZM85.083 31.0369H87.6329V25.7177C88.1872 26.6238 89.2756 27.4217 90.7371 27.4217C93.2775 27.4217 94.958 25.2447 94.958 22.0729C94.958 18.9012 93.2775 16.7044 90.7371 16.724C89.2278 16.7339 88.101 17.5909 87.5568 18.4282V17.0393H85.083V31.0369ZM47.273 19.6792V15.3254H50.0712C51.6089 15.3254 52.5829 16.1726 52.5829 17.4727C52.5829 18.8419 51.6184 19.6792 50.0712 19.6792H47.273ZM44.5797 27.1065H47.273V22.004H50.5488C53.4234 22.0138 55.4003 20.1915 55.3907 17.4727C55.4003 14.7737 53.4234 12.9711 50.5391 12.9808H44.5797V27.1065ZM36.5953 25.373V11.9073C36.5953 11.6906 36.4614 11.5823 36.261 11.6709L32.5362 13.2175C32.3834 13.2864 32.3165 13.3849 32.3165 13.5524V22.7429C32.3165 22.9104 32.2498 23.0089 32.0969 23.0778L15.4983 30.0027C15.3454 30.0716 15.2785 30.1701 15.2785 30.3377V34.1301C15.2785 34.3467 15.4124 34.455 15.6128 34.3664L36.3755 25.7079C36.5284 25.6389 36.5953 25.5404 36.5953 25.373ZM11 18.0244V31.4899C11 31.7067 11.1337 31.8151 11.3343 31.7265L15.059 30.1799C15.2119 30.1108 15.2786 30.0123 15.2786 29.8449V20.6545C15.2786 20.4869 15.3455 20.3885 15.4984 20.3194L32.0969 13.3947C32.2498 13.3257 32.3165 13.2272 32.3165 13.0598V9.26737C32.3165 9.05059 32.1828 8.94242 31.9822 9.031L11.2196 17.6896C11.067 17.7584 11 17.8568 11 18.0244Z" fill="white"/>
</g>
<defs>
<clipPath id="clip0_2022_60">
<rect width="95" height="26" fill="white" transform="translate(11 9)"/>
</clipPath>
</defs>
</svg>
