<svg width="118" height="44" viewBox="0 0 118 44" fill="none" xmlns="http://www.w3.org/2000/svg">
<g clip-path="url(#clip0_2022_58)">
<path d="M28.5456 16.8401V17.6803H27.2503H25.9551V18.3743V19.0684H27.2503H28.5456V23.4517V27.8351H29.2909H30.0361V21.9175V16H29.2909H28.5456V16.8401Z" fill="white"/>
<path d="M32.044 16.2629C32.0228 16.4017 31.384 22.4617 31.384 22.5311C31.384 22.564 31.5508 22.5749 32.0866 22.5749H32.7893L32.9454 22.2535C33.066 22.0087 33.169 21.8663 33.389 21.6398C33.7119 21.3074 34.01 21.1284 34.4536 21.0006C34.8333 20.891 35.543 20.8837 35.9085 20.9823C36.2599 21.0773 36.6289 21.2709 36.8596 21.4827C37.0938 21.6982 37.3777 22.122 37.4877 22.4179C37.7787 23.2032 37.7716 24.3429 37.4735 25.0954C37.25 25.6579 36.8312 26.1255 36.3131 26.3884C35.905 26.5967 35.6033 26.6661 35.0994 26.6661C34.6097 26.6661 34.2903 26.593 33.8787 26.3884C33.6125 26.2533 33.5096 26.1766 33.3002 25.9464C33.0164 25.6396 32.8105 25.2524 32.7112 24.8287L32.6508 24.584H31.8559C31.1143 24.584 31.0611 24.5876 31.0788 24.646C31.0859 24.6826 31.1143 24.8104 31.1356 24.931C31.1604 25.0515 31.2207 25.2634 31.2669 25.4058C31.8524 27.0825 33.2399 28.0176 35.1491 28.0176C36.5047 28.0176 37.6403 27.4551 38.4139 26.3994C38.8007 25.8698 39.0633 25.205 39.1769 24.4634C39.2478 24.0141 39.2266 23.1009 39.1379 22.6882C38.7085 20.6937 37.2464 19.5102 35.3053 19.5906C34.3968 19.6271 33.7155 19.9084 33.2399 20.449C33.1583 20.5403 33.0767 20.6061 33.0625 20.5914C33.0483 20.5769 33.1086 19.8682 33.1973 19.0207L33.3535 17.4793L35.9724 17.4683L38.5878 17.461V16.8035V16.146H35.323H32.0618L32.044 16.2629Z" fill="white"/>
<path d="M65.168 17.9359C65.168 18.7761 65.1467 18.9112 65.008 19.0318C64.9586 19.0756 64.7916 19.0902 64.2312 19.1048L63.5177 19.1231L63.507 19.7879L63.5 20.4564H64.334H65.168V23.3603C65.168 25.8443 65.175 26.3082 65.2248 26.5492C65.3631 27.2652 65.7355 27.6451 66.4349 27.7839C66.6337 27.8204 67.0097 27.835 67.9573 27.835H69.2135V27.1775V26.52H68.2268C67.0805 26.52 66.9386 26.4981 66.7756 26.2753L66.676 26.1438L66.6653 23.2982L66.6584 20.4564H67.9359H69.2135L69.2061 19.7879L69.1958 19.1231L67.9289 19.1121L66.6584 19.1048V18.1186V17.1323H65.9132H65.168V17.9359Z" fill="white"/>
<path d="M50.7957 18.9808C49.6744 19.1853 48.8901 19.6237 48.3081 20.3761C47.8894 20.9167 47.6765 21.3624 47.4991 22.0637C47.2506 23.0682 47.2719 24.1495 47.57 25.1504C47.9888 26.564 48.9753 27.5466 50.3202 27.8973C50.6751 27.9886 50.7638 27.9995 51.3636 27.9995C51.9526 27.9959 52.0591 27.9886 52.3927 27.9009C53.5105 27.6123 54.348 26.9475 54.8164 25.9905C54.9158 25.786 55.0896 25.3147 55.0896 25.2527C55.0896 25.249 54.7561 25.2417 54.3515 25.2417H53.6099L53.4573 25.5558C53.2585 25.9722 52.9675 26.2791 52.5949 26.4654C52.1975 26.659 51.9029 26.7137 51.328 26.6918C50.9235 26.6809 50.8029 26.6626 50.5509 26.575C49.8305 26.3229 49.2556 25.7202 49.0072 24.9494C48.9114 24.6499 48.8085 24.1678 48.8085 24.018V23.9267H51.9988H55.189L55.2103 23.8463C55.2494 23.6929 55.2316 23.0573 55.1784 22.6409C55.0719 21.819 54.8732 21.2382 54.4899 20.6355C53.9825 19.8355 53.2905 19.3205 52.3962 19.0794C52.1123 19.0027 51.9597 18.9844 51.47 18.9771C51.1471 18.9698 50.8454 18.9735 50.7957 18.9808ZM51.6829 20.2556C52.414 20.3214 53.1237 20.8254 53.4537 21.5195C53.6169 21.8665 53.7412 22.3194 53.7412 22.5824V22.7578H51.2784H48.8121L48.8333 22.619C48.8759 22.3487 49.0285 21.8555 49.1634 21.567C49.2627 21.3515 49.3798 21.1871 49.5679 20.9825C49.8625 20.6574 50.1038 20.493 50.4764 20.3615C50.7141 20.2739 51.2145 20.2008 51.3813 20.2227C51.4203 20.23 51.5552 20.241 51.6829 20.2556Z" fill="white"/>
<path d="M59.5536 19.0283C58.8155 19.1963 58.1909 19.5981 57.7438 20.2008C57.6409 20.3433 57.538 20.4565 57.5132 20.4565C57.4776 20.4565 57.467 20.2995 57.467 19.7807V19.105H56.7218H55.9766V23.4701V27.8352H56.7218H57.4634L57.4741 25.1431L57.4883 22.4473L57.5805 22.0893C57.7012 21.6437 57.8006 21.4135 58.0099 21.125C58.3861 20.6063 58.9042 20.3396 59.6459 20.2885C60.771 20.2081 61.4487 20.7012 61.6581 21.7496C61.7182 22.0564 61.7256 22.2902 61.7256 24.9568V27.8352H62.4707H63.2159V24.8472C63.2159 22.4144 63.2052 21.7971 63.1628 21.5158C62.9604 20.1424 62.3502 19.368 61.2322 19.0611C60.8311 18.9516 59.9724 18.9333 59.5536 19.0283Z" fill="white"/>
<path d="M85.9097 19.0171C84.8909 19.2144 84.0927 19.7075 83.5141 20.4965C83.2265 20.891 83.0669 21.2015 82.9249 21.6252C82.4567 23.0498 82.5526 24.7192 83.1772 25.9246C83.8939 27.3163 85.1999 28.0651 86.7968 28.0067C87.9394 27.9665 88.7804 27.6122 89.4935 26.8706C89.8983 26.4506 90.2707 25.8004 90.3452 25.3766L90.3703 25.2415H89.6214C89.0182 25.2415 88.8726 25.2525 88.8726 25.289C88.8726 25.4132 88.6277 25.8223 88.415 26.0524C88.0139 26.4944 87.4851 26.7026 86.7717 26.7026C86.275 26.7026 85.9129 26.6259 85.5369 26.4396C85.2884 26.3191 85.1818 26.2351 84.9267 25.972C84.6712 25.7091 84.593 25.5958 84.458 25.3109C84.284 24.9347 84.1634 24.511 84.128 24.153L84.1066 23.9265H87.3041H90.4978L90.5229 23.6416C90.569 23.1156 90.4378 22.1549 90.2423 21.5632C89.8946 20.5148 89.082 19.6052 88.1595 19.2327C87.6946 19.0427 87.3963 18.9879 86.7791 18.9733C86.3602 18.966 86.1117 18.977 85.9097 19.0171ZM87.2333 20.2956C87.9608 20.4527 88.6277 21.0627 88.8763 21.7969C88.9647 22.0636 89.0499 22.469 89.0499 22.6334V22.7576H86.5803H84.1103L84.135 22.6005C84.1494 22.5165 84.1988 22.3083 84.2486 22.1403C84.5646 21.0116 85.3167 20.3321 86.3532 20.2408C86.6832 20.2116 86.8996 20.2262 87.2333 20.2956Z" fill="white"/>
<path d="M93.5727 19.0137C92.7176 19.1671 91.9865 19.5616 91.5462 20.0985C91.0887 20.6574 90.9467 21.6327 91.2162 22.3487C91.3014 22.5788 91.3759 22.703 91.5285 22.8747C91.9898 23.3861 92.5967 23.6381 93.9487 23.8719C95.5954 24.1568 96.1241 24.3613 96.394 24.8216C96.4899 24.986 96.5183 25.0737 96.5323 25.2782C96.5854 26.0708 95.9892 26.6188 94.9354 26.743C94.2754 26.8197 93.4554 26.6845 93.0616 26.4362C92.7102 26.2133 92.444 25.8407 92.3379 25.4134L92.2918 25.2234L91.5569 25.2124L90.8262 25.2051V25.3038C90.8262 25.5047 90.943 25.8919 91.1134 26.2571C91.5783 27.2471 92.5576 27.8461 93.9417 27.9849C95.0136 28.0945 96.0743 27.9045 96.7878 27.4808C97.1038 27.2909 97.5934 26.7795 97.7247 26.5055C98.232 25.417 98.0654 24.2408 97.3128 23.5942C96.8018 23.1559 96.2023 22.9441 94.6371 22.6518C93.1361 22.3669 92.7353 22.1879 92.5436 21.7167C92.43 21.4318 92.5222 21.03 92.767 20.7451C93.0476 20.4273 93.5089 20.252 94.1619 20.2154C95.2761 20.1497 96.0319 20.5442 96.2484 21.304L96.3089 21.5158H97.0289H97.7461V21.4209C97.7461 21.304 97.5934 20.8364 97.4832 20.6099C97.1071 19.8465 96.3298 19.2803 95.3329 19.0465C94.9992 18.9662 93.938 18.9479 93.5727 19.0137Z" fill="white"/>
<path d="M39.0859 19.1305C39.0859 19.1561 39.2634 19.5944 41.4245 24.9312L42.5921 27.8169L43.4579 27.8278L44.3238 27.8352L45.3919 25.1613C45.981 23.6892 46.7653 21.7313 47.1379 20.8108C47.5744 19.7186 47.7944 19.1305 47.766 19.1196C47.7447 19.1123 47.3615 19.1086 46.9143 19.1123L46.1053 19.1232L45.541 20.6391C45.2323 21.472 44.6361 23.0719 44.2244 24.1897C43.8092 25.3111 43.4615 26.2279 43.4508 26.2279C43.4402 26.2279 43.135 25.417 42.7695 24.4271C42.4004 23.4408 41.8078 21.8409 41.4494 20.8766L40.7964 19.1232L39.9412 19.1123C39.4727 19.1086 39.0859 19.1159 39.0859 19.1305Z" fill="white"/>
<path d="M69.9828 19.1264C69.9401 19.1702 69.9545 24.8029 69.9968 25.1937C70.1886 26.9763 71.1255 27.9333 72.7437 28.0064C73.2404 28.0283 73.5811 27.9845 73.9929 27.8383C74.55 27.6411 75.0718 27.2429 75.4231 26.7388C75.5116 26.6183 75.6005 26.5197 75.6252 26.5197C75.6606 26.5197 75.6713 26.6694 75.6713 27.1772V27.8347H76.4164H77.162L77.1546 23.4806L77.1439 19.1228L76.4094 19.1118L75.675 19.1045L75.6606 21.7601C75.6499 24.2878 75.6429 24.4339 75.5754 24.7481C75.4762 25.1827 75.3804 25.4421 75.2063 25.716C74.9261 26.1617 74.5109 26.4722 74.0036 26.6146C73.6522 26.7133 72.9639 26.706 72.6372 26.6037C72.0977 26.432 71.7785 26.0667 71.5834 25.4202C71.5052 25.1499 71.5052 25.1316 71.4838 22.1363L71.4662 19.1228L70.735 19.1118C70.3342 19.1081 69.9968 19.1155 69.9828 19.1264Z" fill="white"/>
<path d="M78.4043 23.4701V27.8352H79.1499H79.8913L79.902 25.0846C79.9127 22.6007 79.9197 22.3085 79.9802 22.0272C80.1007 21.4355 80.3953 20.9496 80.7751 20.7232C81.1014 20.5259 81.3108 20.4821 82.0881 20.4638L82.8048 20.4492V19.7771V19.105H82.4781C81.9568 19.105 81.3746 19.1671 81.1084 19.2474C80.7039 19.3716 80.2818 19.7004 80.0686 20.0584C79.9197 20.3031 79.8983 20.2556 79.8876 19.6602L79.8773 19.1232L79.1425 19.1123L78.4043 19.105V23.4701Z" fill="white"/>
<path d="M19 20.186C19 20.197 19.4436 20.7266 19.9865 21.3622C20.5259 21.9978 21.2002 22.7904 21.4805 23.1228C21.7644 23.4552 22.0057 23.7255 22.0235 23.7255C22.059 23.7255 22.9035 22.732 22.9035 22.6881C22.9035 22.6735 22.7403 22.469 22.5416 22.2388C22.3393 22.0051 21.8638 21.4425 21.4841 20.9932L20.7921 20.1677H19.8978C19.4045 20.1641 19 20.175 19 20.186Z" fill="white"/>
<path d="M24.8311 21.1576C24.3663 21.7055 23.8872 22.268 23.7666 22.4069C23.6423 22.5457 23.543 22.6735 23.543 22.6845C23.543 22.7247 24.3982 23.7255 24.4302 23.7255C24.4585 23.7255 24.7885 23.342 26.4635 21.3695C26.9319 20.8179 27.3543 20.3211 27.4039 20.2627L27.4962 20.1641H26.5877H25.6757L24.8311 21.1576Z" fill="white"/>
<path d="M22.9844 23.3312C22.8495 23.4883 21.9659 24.5293 21.022 25.6434C20.0816 26.7575 19.276 27.7072 19.237 27.7511L19.166 27.8351H20.0709H20.9758L22.0866 26.5201C22.7005 25.7968 23.2115 25.2051 23.2221 25.2051C23.2363 25.2051 23.7474 25.7968 24.3613 26.5201L25.4756 27.8351H26.3769C27.2286 27.8351 27.2748 27.8314 27.2286 27.773C27.2002 27.7365 26.3024 26.6735 25.2307 25.406C24.159 24.1421 23.2718 23.0901 23.2577 23.0755C23.2435 23.0609 23.1228 23.1741 22.9844 23.3312Z" fill="white"/>
</g>
<defs>
<clipPath id="clip0_2022_58">
<rect width="79" height="12" fill="white" transform="translate(19 16)"/>
</clipPath>
</defs>
</svg>
