<svg width="118" height="45" viewBox="0 0 118 45" fill="none" xmlns="http://www.w3.org/2000/svg">
<path d="M12.8717 27.9401H10L16.7968 17.1562H19.8373L26.4129 27.9401H23.4249L22.1118 25.7302H14.2231L12.8717 27.9401ZM18.7978 20.1663L18.2263 19.1201L17.6279 20.1688L15.5874 23.4942H20.7732C20.786 23.4942 18.7978 20.1663 18.7978 20.1663Z" fill="white"/>
<path d="M42.5162 27.9401H39.059L36.2909 19.9858L33.5228 27.9401H30.0668L25.25 17.1562H28.1869L31.7477 25.8266L34.6927 17.1562H37.8891L40.84 25.8266L44.4008 17.1562H47.0781L42.5162 27.9401Z" fill="white"/>
<path d="M48.6467 27.9401H45.7773L52.5742 17.1562H55.6148L62.1901 27.9401H59.202L57.8892 25.7302H50.0005L48.6467 27.9401ZM54.5729 20.1663L54.0013 19.1201L53.4029 20.1688L51.3659 23.4942H56.5507C56.5622 23.4942 54.5751 20.1663 54.5751 20.1663H54.5729Z" fill="white"/>
<path d="M69.2614 24.419V27.9398H66.5842V24.4375L59.7871 17.156H62.9966L67.9705 22.444L72.9515 17.1411H76.0581L69.2614 24.419Z" fill="white"/>
<path d="M90.7166 25.081C89.7931 27.0003 87.6095 28.1059 83.6459 28.1059C79.8908 28.1059 77.6688 26.9038 76.655 25.3023C76.1436 24.4788 75.8723 23.5136 75.875 22.5272C75.875 21.5614 76.096 20.6363 76.5512 19.945C77.6688 18.2198 79.7732 16.9077 83.5818 16.9077C87.5966 16.9077 89.5722 18.3917 90.6827 20.0835C90.9816 20.5535 91.0854 21.2571 91.1121 21.5329H88.2733C88.1957 21.2471 88.0599 20.9831 87.875 20.76C87.2768 20.0279 85.8344 19.3242 83.568 19.3242C81.2552 19.3242 79.5531 20.0662 78.9027 21.3029C78.717 21.6817 78.6275 22.1054 78.643 22.5321C78.6292 22.9786 78.7379 23.4197 78.9549 23.8022C79.7478 25.1415 81.7104 25.7216 83.5818 25.7216C85.7124 25.7216 87.0741 25.4594 88.0265 24.2722C88.1735 24.0628 88.2635 23.8141 88.2857 23.5536H91.1192C91.0667 23.9358 90.9237 24.6394 90.7166 25.081Z" fill="white"/>
<path d="M106.557 18.8962C107.635 19.9177 107.999 21.0357 107.999 22.4999C107.999 23.9914 107.506 25.2058 106.583 26.1036C105.283 27.464 103.062 28.1058 100.216 28.1058C97.4729 28.1058 95.4194 27.3873 94.0287 26.1445C93.0287 25.2478 92.4434 24.0421 92.4434 22.4715C92.4434 21.1186 92.8585 20.0142 93.8728 19.0199C95.4582 17.4604 97.3821 16.894 100.228 16.894C103.074 16.894 105.088 17.5124 106.557 18.8962ZM104.555 24.4378C105.088 23.885 105.27 23.2222 105.27 22.5185C105.27 21.8148 105.088 21.0406 104.504 20.5163C103.555 19.6605 102.346 19.2042 100.197 19.2042C98.1701 19.2042 96.6885 19.757 95.9339 20.5719C95.688 20.8235 95.4929 21.126 95.3611 21.4608C95.2292 21.7956 95.1637 22.1556 95.1682 22.5185C95.1682 23.3842 95.3896 24.0508 96.0996 24.6443C97.0992 25.4729 98.3113 25.8464 100.206 25.8464C102.295 25.8415 103.589 25.4408 104.555 24.4378Z" fill="white"/>
</svg>
