<svg width="119" height="44" viewBox="0 0 119 44" fill="none" xmlns="http://www.w3.org/2000/svg">
<path d="M26.3717 19.1576C26.2966 19.0975 17.1119 10.9845 16.1015 10.0982L15.8396 9.85711L15.2221 9.31344L15.1849 9.27337C14.0063 8.22611 13.9126 8.18604 13.5576 8.18604H13.5197C13.1833 8.18604 13.0896 8.22611 11.8924 9.27337L11.8732 9.29341L11.0322 10.0181L10.9757 10.0782C7.5465 13.0905 4.1233 16.1103 0.706172 19.1375C0.515584 19.3115 0.397353 19.5557 0.376397 19.8186C0.35544 20.0814 0.433397 20.3425 0.593835 20.5468C0.762662 20.7685 1.02393 20.9095 1.30509 20.9095H3.56853C3.56853 23.1436 3.54927 27.2304 3.54927 29.868C3.54927 30.4317 3.96139 30.8745 4.4852 30.8745H11.0136C11.2383 30.8745 11.463 30.8544 11.6684 30.7943C11.7621 30.7536 11.8558 30.6728 11.9303 30.5926L14.9236 27.1703L14.9987 27.0902C15.934 26.0229 19.4884 21.9761 19.6565 21.6742C19.9371 21.1913 20.1059 20.6476 20.1617 20.104C20.2362 19.4394 20.1617 18.7749 19.9178 18.1711C19.5881 17.2975 18.9535 16.5857 18.1409 16.1781C17.8203 16.0226 17.4805 15.9142 17.1312 15.8562C16.5323 15.776 15.934 15.8361 15.3723 16.0779C14.9987 16.2182 14.6431 16.4599 14.3439 16.7418C14.1385 16.9435 13.9511 17.1445 13.7636 17.3462L13.745 17.3663V17.3462L13.5203 17.5873L13.3894 17.4271L13.3149 17.3462L13.2957 17.3262C13.1275 17.1445 12.9221 16.9235 12.716 16.7218C12.4169 16.4399 12.0612 16.1981 11.6876 16.0572C11.1279 15.8334 10.5236 15.7575 9.92876 15.8361C9.57313 15.8762 9.23676 15.9971 8.919 16.158C7.51575 16.8627 6.6928 18.4529 6.89821 20.104C6.9547 20.6677 7.14215 21.1913 7.40341 21.6742C7.60883 22.0162 7.85276 22.3187 8.13328 22.6006C8.39519 22.8617 9.64823 24.3117 10.7524 25.5994L11.2755 26.2039C11.5002 26.4457 11.5939 26.5665 11.7807 26.7676L13.053 25.3182C11.3692 23.3854 9.06857 20.7485 8.97485 20.6076C8.8439 20.3858 8.76943 20.124 8.73156 19.8622C8.69059 19.547 8.73599 19.2261 8.86251 18.9365C8.919 18.7548 9.01208 18.5939 9.12442 18.4529C9.27399 18.2519 9.48005 18.0909 9.70408 17.9901C9.85429 17.9099 10.0039 17.8699 10.172 17.8498C10.4526 17.8091 10.7517 17.8498 11.0322 17.95C11.1824 18.0101 11.332 18.0903 11.4623 18.2118C11.6312 18.3721 11.8186 18.5738 11.9868 18.7548L12.2301 19.0574L12.3045 19.1375L13.5396 20.3658L14.7554 19.1175L14.8299 19.0373L15.1104 18.7548C15.2792 18.5745 15.4474 18.3928 15.6156 18.2319C15.74 18.1146 15.8865 18.0254 16.0457 17.9701C16.3082 17.8498 16.6074 17.8091 16.8879 17.8498C17.0561 17.8699 17.2057 17.9099 17.3552 17.9901C17.5799 18.0903 17.7673 18.2519 17.9355 18.4529C18.0479 18.5939 18.1409 18.7548 18.2161 18.9365C18.3284 19.2384 18.3656 19.5603 18.3284 19.8822C18.3091 20.1441 18.2161 20.4059 18.0851 20.6276C18.0479 20.6877 17.2808 21.5934 12.6788 26.8885C12.4355 27.1503 10.995 28.7806 10.8827 28.8815H5.40124C5.40124 26.7676 5.40124 23.6472 5.41985 20.104V19.923C5.41985 19.3593 5.00838 18.9165 4.48456 18.9165H3.88564C7.09473 16.0872 10.3125 13.2687 13.539 10.4609C14.3054 11.1254 20.2542 16.319 23.1916 18.9165H22.5927C22.0689 18.9165 21.6574 19.3593 21.6574 19.923V20.0632C21.6574 21.6942 21.6767 25.8212 21.6767 28.9015H16.1946C15.8591 28.5839 15.5467 28.2407 15.26 27.875L13.9877 29.3043L14.2496 29.6061L14.9602 30.4317L15.129 30.6127C15.2035 30.6928 15.2972 30.7736 15.3909 30.8137C15.5963 30.8738 15.821 30.8945 16.0264 30.8945H22.5934C23.1165 30.8945 23.528 30.4517 23.528 29.888C23.528 27.2505 23.5094 23.1643 23.5094 20.9295H25.7542C26.278 20.9295 26.6895 20.4666 26.6895 19.923C26.7088 19.6411 26.5772 19.3593 26.3717 19.1576Z" fill="white"/>
<path d="M47.5361 16.4164C46.1868 16.4164 45.0621 16.7884 44.2 17.4937L43.9002 17.7288C43.8377 17.8963 43.817 18.0776 43.84 18.2557C43.863 18.4338 43.929 18.6029 44.0318 18.7473C44.3874 19.2763 45.0807 19.3157 45.0807 19.3157L45.3619 19.0806C45.9056 18.6498 46.6175 18.4341 47.5175 18.4341C48.4168 18.4341 49.0915 18.6298 49.5973 19.0419C49.9908 19.3551 50.272 19.9816 50.4408 20.5112H46.9173C46.3742 20.5112 45.8305 20.5306 45.2682 20.6087C44.7623 20.6675 44.2937 20.8044 43.8444 21.0596C43.4092 21.3117 43.0566 21.6937 42.832 22.1563C42.6297 22.5496 42.5055 22.9812 42.4669 23.4255C42.4283 23.8698 42.476 24.3177 42.6074 24.7424C42.7383 25.1738 43.0009 25.5458 43.3379 25.8397C43.7879 26.2117 44.313 26.5056 44.8747 26.6626C45.5307 26.8783 46.3928 26.9958 47.4989 26.9958C48.6043 26.9958 49.4664 26.8783 50.1224 26.6626C50.6832 26.5002 51.2062 26.2201 51.6592 25.8397C51.9962 25.5659 52.2588 25.1738 52.3897 24.7424C52.4834 24.4485 52.5399 24.1546 52.5399 23.8607V21.9212C52.5399 20.2955 52.0899 18.7867 51.2092 17.8463C50.3285 16.9059 49.1101 16.4164 47.5361 16.4164ZM50.6469 22.5289V23.8414C50.6469 23.9983 50.5718 24.1553 50.4594 24.2528C50.2534 24.4291 50.0287 24.5667 49.7854 24.6448C49.4445 24.7625 49.0924 24.8413 48.7352 24.8799C47.9296 24.9775 47.124 24.9775 46.3177 24.8799C45.9607 24.8413 45.6088 24.7624 45.2682 24.6448C45.0193 24.5654 44.7896 24.4317 44.5941 24.2528C44.5366 24.202 44.4901 24.1391 44.4578 24.0681C44.4255 23.9972 44.408 23.9199 44.4067 23.8414C44.3874 23.6256 44.4067 23.4106 44.4625 23.2142C44.5214 23.0427 44.6427 22.9022 44.8002 22.8228C45.0911 22.6935 45.4021 22.6204 45.7182 22.6071C46.1675 22.5677 46.7677 22.5483 47.5175 22.5483L50.6469 22.5289ZM89.9085 16.4164C88.5585 16.4164 87.4345 16.7884 86.5724 17.4937L86.2912 17.7288C86.2286 17.8962 86.2078 18.0775 86.2307 18.2556C86.2536 18.4337 86.3195 18.6029 86.4222 18.7473C86.7785 19.2763 87.4717 19.3157 87.4717 19.3157L87.7529 19.0806C88.2966 18.6498 89.0085 18.4341 89.9079 18.4341C90.8078 18.4341 91.4825 18.6298 91.9877 19.0419C92.3818 19.3551 92.663 19.9816 92.8318 20.5112H89.3083C88.7646 20.5112 88.2215 20.5306 87.6592 20.6087C87.1533 20.6675 86.6847 20.8044 86.2347 21.0596C85.7998 21.3118 85.4474 21.6937 85.2231 22.1563C85.0207 22.5496 84.8965 22.9812 84.8579 23.4255C84.8193 23.8698 84.8671 24.3177 84.9984 24.7424C85.1293 25.1738 85.3919 25.5458 85.7289 25.8397C86.1782 26.2117 86.7034 26.5056 87.2657 26.6626C87.9217 26.8783 88.7838 26.9958 89.8892 26.9958C90.9953 26.9958 91.8568 26.8783 92.5128 26.6626C93.0736 26.5002 93.5966 26.2201 94.0496 25.8397C94.3872 25.5659 94.6491 25.1738 94.7807 24.7424C94.8745 24.4485 94.9303 24.1546 94.9303 23.8607V21.9212C94.9303 20.2955 94.481 18.7867 93.6002 17.8463C92.7189 16.9059 91.4825 16.4164 89.9085 16.4164ZM93.0186 22.5483V23.8414C93.0186 23.9983 92.9442 24.1553 92.8318 24.2528C92.6251 24.4291 92.4005 24.5667 92.1572 24.6448C91.8165 24.7624 91.4646 24.8413 91.1076 24.8799C90.3014 24.9775 89.4957 24.9775 88.6901 24.8799C88.3331 24.8413 87.9812 24.7624 87.6406 24.6448C87.3915 24.5654 87.1615 24.4318 86.9659 24.2528C86.9083 24.202 86.8619 24.1391 86.8295 24.0681C86.7972 23.9972 86.7798 23.9199 86.7785 23.8414C86.7592 23.6256 86.7785 23.4106 86.8349 23.2142C86.8937 23.0429 87.0147 22.9023 87.172 22.8228C87.4628 22.6935 87.7739 22.6204 88.0899 22.6071C88.5399 22.5677 89.1395 22.5483 89.8892 22.5483H93.0186ZM113.352 16.4164C111.778 16.4164 110.523 16.8866 109.641 17.827C108.761 18.7674 108.311 19.9228 108.311 21.5885C108.311 23.2536 108.761 24.6642 109.641 25.5852C110.523 26.5056 111.778 26.9758 113.334 26.9758C114.851 26.9758 116.07 26.5256 116.969 25.624L117.232 25.3501C117.267 25.1495 117.255 24.9428 117.197 24.7481C117.138 24.5535 117.034 24.3767 116.895 24.2334C116.388 23.7044 115.882 23.9001 115.882 23.9001L115.62 24.1546C115.095 24.6836 114.327 24.9387 113.334 24.9387C112.397 24.9387 111.665 24.7036 111.16 24.2528C110.729 23.8808 110.466 23.2342 110.335 22.5677H117.438C117.682 22.5677 117.925 22.4702 118.112 22.2938C118.3 22.0975 118.412 21.8236 118.412 21.5491C118.412 19.9228 117.963 18.7473 117.081 17.8069C116.201 16.8665 114.926 16.4164 113.352 16.4164ZM116.388 20.5693H110.316C110.412 19.9976 110.705 19.482 111.141 19.12C111.665 18.6692 112.397 18.4341 113.334 18.4341C114.271 18.4341 115.02 18.6692 115.526 19.12C115.995 19.492 116.294 20.0016 116.388 20.5693ZM67.1008 16.4164C65.5268 16.4164 64.2712 16.8866 63.3904 17.827C62.5097 18.7674 62.0597 19.9228 62.0597 21.5885C62.0597 23.2536 62.5091 24.6642 63.3904 25.5852C64.2712 26.5056 65.5268 26.9758 67.0822 26.9758C68.6003 26.9758 69.8181 26.5256 70.718 25.624L70.98 25.3501C71.0158 25.1495 71.0038 24.9428 70.945 24.7481C70.8863 24.5535 70.7826 24.3767 70.6429 24.2334C70.1371 23.7044 69.6313 23.9001 69.6313 23.9001L69.3681 24.1546C68.8436 24.6836 68.0752 24.9387 67.0828 24.9387C66.1456 24.9387 65.4138 24.7036 64.9086 24.2528C64.4772 23.8808 64.2153 23.2342 64.0837 22.5677H71.1867C71.4306 22.5677 71.6739 22.4702 71.8607 22.2938C72.0488 22.0975 72.1611 21.8236 72.1611 21.5491C72.1611 19.9228 71.7111 18.7473 70.8304 17.8069C69.9497 16.8665 68.6754 16.4164 67.1008 16.4164ZM70.1371 20.5693H64.0645C64.1588 20.0016 64.44 19.4727 64.8893 19.12C65.4144 18.6692 66.145 18.4341 67.0822 18.4341C68.0194 18.4341 68.7692 18.6692 69.275 19.12C69.7243 19.4727 70.0434 20.0016 70.1371 20.5693ZM101.546 16.4164C99.9714 16.4164 98.7158 16.8866 97.8357 17.827C96.9543 18.7674 96.505 20.0604 96.505 21.7061C96.505 23.3518 96.9543 24.6642 97.835 25.5852C98.7158 26.5056 99.9714 26.9758 101.545 26.9758C102.783 26.9758 103.813 26.6819 104.62 26.1142C104.544 26.917 104.282 27.5442 103.87 27.975C103.345 28.524 102.576 28.7978 101.546 28.7978H97.8164C97.5743 29.0695 97.4404 29.4266 97.4415 29.797C97.4608 30.1697 97.5917 30.5417 97.8164 30.8162H102.033V30.7962C103.364 30.6987 104.451 30.2478 105.238 29.425C106.137 28.5039 106.587 27.1915 106.587 25.5652V21.7061C106.587 20.0798 106.138 18.7674 105.256 17.827C104.376 16.8866 103.12 16.4164 101.546 16.4164ZM104.657 21.6861L104.638 22.1369C104.563 23.0773 104.282 23.7632 103.757 24.2334C103.232 24.7036 102.502 24.9387 101.527 24.9387C100.496 24.9387 99.7094 24.6642 99.1844 24.1159C98.6599 23.5669 98.3974 22.744 98.3974 21.6667C98.3974 20.5894 98.6599 19.7665 99.1844 19.2175C99.7094 18.6692 100.496 18.3947 101.527 18.3947C102.558 18.3947 103.345 18.6692 103.87 19.2175C104.394 19.7665 104.657 20.6281 104.657 21.6861ZM58.9117 16.4357H58.4238V16.4558C57.1875 16.5533 56.1938 17.0235 55.4446 17.8463C54.6198 18.7867 54.2077 20.0798 54.2077 21.7061V26.5056C54.2077 26.5056 54.2828 26.8783 55.107 26.8783C55.9319 26.8783 56.1379 26.5056 56.1379 26.5056V21.7255C56.1379 20.6482 56.3819 19.8253 56.8505 19.2763C57.3191 18.7279 57.9931 18.4735 58.9111 18.4735H61.1225C61.4788 18.2972 61.7227 17.9245 61.7034 17.4937C61.7034 17.0629 61.4788 16.6708 61.1225 16.4357H58.9117ZM40.0397 23.8614L39.7777 24.1352C39.2526 24.6642 38.4843 24.9387 37.4912 24.9387C36.4603 24.9387 35.6919 24.6642 35.1674 24.1352C34.6423 23.6063 34.399 22.7834 34.399 21.7255C34.399 20.6675 34.6616 19.864 35.1674 19.3157C35.6733 18.7674 36.4603 18.4928 37.4912 18.4928C38.3533 18.4928 39.0466 18.7086 39.5524 19.1006L39.8522 19.3351C40.2457 19.3551 40.6206 19.1981 40.8645 18.9043C41.595 18.1402 41.0141 17.7288 41.0141 17.7288L40.7336 17.4937C39.8715 16.8278 38.8033 16.4751 37.5098 16.4751C35.9544 16.4751 34.6988 16.9453 33.8181 17.8657C32.9374 18.7867 32.4688 20.0798 32.4688 21.7061C32.4688 23.3318 32.9181 24.6448 33.7995 25.5652C34.6802 26.4862 35.9172 26.9564 37.4912 26.9564C38.1845 26.9564 38.8591 26.8583 39.5152 26.6232C40.1143 26.4034 40.6629 26.0566 41.1264 25.6046L41.3896 25.3308C41.4732 25.136 41.4982 24.9195 41.4613 24.7097C41.4244 24.4999 41.3274 24.3066 41.1829 24.1553C40.8831 23.8414 40.4325 23.7432 40.0397 23.8614ZM82.3742 17.7876C81.4748 16.8472 80.2378 16.377 78.6638 16.377C77.0898 16.377 75.815 16.8472 74.9342 17.7876C74.0535 18.7279 73.5849 20.021 73.5849 21.6667V30.4435C73.5849 30.4435 73.8288 30.7962 74.5414 30.7962C75.5152 30.7962 75.5152 30.4435 75.5152 30.4435V26.0748C75.815 26.2905 76.1526 26.4862 76.5089 26.6232C77.2022 26.8783 77.9327 27.0152 78.6638 26.9958C80.2378 26.9958 81.4935 26.5256 82.3742 25.5852C83.2549 24.6448 83.7235 23.3318 83.7235 21.6861C83.7235 20.0404 83.2742 18.7279 82.3742 17.7876ZM81.7932 21.6667C81.7932 22.764 81.5313 23.5869 81.0062 24.1352C80.4818 24.6836 79.6948 24.9581 78.6638 24.9581C77.6329 24.9581 76.8273 24.6842 76.3028 24.1352C75.7777 23.5869 75.5152 22.764 75.5152 21.6667C75.5152 20.5693 75.7784 19.7665 76.3028 19.2175C76.8273 18.6692 77.6143 18.3947 78.6452 18.3947C79.6755 18.3947 80.4632 18.6692 80.9876 19.2175C81.5121 19.7665 81.7932 20.5894 81.7932 21.6667Z" fill="white"/>
<path d="M33.7539 30.8945H37.1638V31.6112H34.4196V33.3865H36.8326V34.0831H34.4196V36.7426H33.7539V30.8945ZM39.218 36.2804C39.6179 36.2804 39.892 36.1008 40.0397 35.7415C40.192 35.3614 40.2678 34.953 40.2624 34.5412C40.2624 34.1432 40.2085 33.8192 40.1019 33.5695C39.9325 33.1767 39.6397 32.9804 39.2251 32.9804C38.8566 32.9804 38.5896 33.1473 38.422 33.482C38.2551 33.8159 38.171 34.22 38.171 34.6922C38.171 35.1464 38.2545 35.5244 38.4214 35.8269C38.5889 36.1295 38.8547 36.2811 39.218 36.2811V36.2804ZM39.2418 32.3552C39.7039 32.3552 40.0936 32.5389 40.4126 32.9049C40.7317 33.2709 40.8915 33.8099 40.8915 34.5212C40.8915 35.2085 40.7503 35.7769 40.4698 36.2243C40.1886 36.6732 39.7527 36.8976 39.1615 36.8976C38.6685 36.8976 38.2769 36.6992 37.9868 36.3025C37.6966 35.9058 37.5522 35.3728 37.5522 34.7042C37.5522 33.9876 37.705 33.4172 38.0105 32.9924C38.3161 32.5676 38.7263 32.3552 39.2418 32.3552ZM41.6239 32.4788H42.1965V33.2155C42.2434 33.0719 42.3583 32.8976 42.5413 32.6918C42.7242 32.4861 42.9348 32.3833 43.1736 32.3833C43.1845 32.3833 43.2037 32.3846 43.2307 32.3873L43.3674 32.4033V33.1594C43.3028 33.1442 43.2366 33.1374 43.1704 33.1393C42.8667 33.1393 42.6337 33.2555 42.4707 33.488C42.3082 33.7204 42.2267 33.9876 42.2267 34.2901V36.7426H41.6239V32.4788ZM47.721 33.3671C48.0021 33.3671 48.221 33.3203 48.377 33.2268C48.6222 33.0812 48.7449 32.8187 48.7449 32.4387C48.7449 32.0567 48.6145 31.7995 48.3533 31.6666C48.2063 31.5925 47.9874 31.5551 47.6979 31.5551H46.5103V33.3664H47.721V33.3671ZM47.9457 36.0654C48.3533 36.0654 48.6447 35.9251 48.8187 35.6439C48.9278 35.4656 48.9824 35.2512 48.9824 34.9988C48.9824 34.574 48.8232 34.2848 48.5041 34.1305C48.3347 34.049 48.1106 34.0076 47.8314 34.0076H46.5097V36.0654H47.945H47.9457ZM45.8568 30.8945H47.9681C48.5439 30.8945 48.9528 31.0989 49.1961 31.5077C49.3386 31.7488 49.4105 32.028 49.4105 32.3439C49.4105 32.7125 49.3219 33.0151 49.1461 33.2509C49.0373 33.3909 48.9032 33.5073 48.7513 33.5935C49.0029 33.707 49.1916 33.8366 49.3162 33.9795C49.5376 34.2347 49.6481 34.586 49.6481 35.0348C49.6481 35.4115 49.5486 35.7528 49.3502 36.0574C49.0536 36.5142 48.5818 36.7426 47.9347 36.7426H45.8568V30.8945ZM50.9666 32.4788V35.3093C50.9666 35.5271 50.9955 35.7047 51.0532 35.843C51.1604 36.0974 51.3601 36.225 51.6522 36.225C52.072 36.225 52.357 36.0019 52.5091 35.5558C52.5913 35.3173 52.633 34.9894 52.633 34.5726V32.4788H53.2351V36.7426H52.6664L52.6728 36.1135C52.6005 36.2674 52.502 36.4063 52.382 36.5236C52.1522 36.7466 51.873 36.8575 51.5449 36.8575C51.0346 36.8575 50.686 36.6551 50.5012 36.2491C50.401 36.0313 50.3503 35.7408 50.3503 35.3768V32.4788H50.9666ZM54.5331 35.4048C54.5511 35.6439 54.6012 35.8269 54.684 35.9538C54.8355 36.1849 55.0987 36.3005 55.4736 36.3005C55.6969 36.3005 55.8934 36.243 56.0628 36.1268C56.2323 36.012 56.317 35.833 56.317 35.5925C56.317 35.4088 56.249 35.2693 56.1129 35.1737C56.0256 35.1156 55.8542 35.0482 55.5974 34.9707L55.1192 34.8278C54.8136 34.7376 54.5883 34.6368 54.4433 34.5252C54.1846 34.3315 54.0549 34.063 54.0549 33.7211C54.0549 33.3177 54.1769 32.9911 54.4208 32.7419C54.6654 32.4921 54.994 32.3679 55.4068 32.3679C55.946 32.3679 56.3357 32.5556 56.5751 32.933C56.724 33.1714 56.7966 33.4292 56.7921 33.705H56.2233C56.2135 33.5471 56.1639 33.3946 56.0795 33.2629C55.9409 33.0745 55.7008 32.9804 55.3599 32.9804C55.132 32.9804 54.96 33.0325 54.8432 33.136C54.7858 33.1859 54.7402 33.2488 54.7097 33.3199C54.6792 33.3909 54.6647 33.4683 54.6673 33.5461C54.6673 33.7318 54.7443 33.88 54.8984 33.9916C54.9876 34.0584 55.1192 34.1165 55.2932 34.1666L55.6912 34.2821C56.1238 34.407 56.414 34.5279 56.561 34.6448C56.7953 34.8278 56.9128 35.1156 56.9128 35.5084C56.9183 35.8726 56.7881 36.225 56.5494 36.4915C56.3074 36.7673 55.9389 36.9056 55.4434 36.9056C54.9106 36.9056 54.5331 36.7613 54.311 36.4735C54.0889 36.1863 53.9702 35.8296 53.9548 35.4048H54.5331ZM57.6015 32.4988H58.2139V36.7426H57.6022V32.4988H57.6015ZM57.6015 30.8945H58.2139V31.7067H57.6022V30.8945H57.6015ZM59.1242 32.4788H59.6968V33.0839C59.8663 32.8348 60.046 32.6551 60.2354 32.5469C60.4247 32.438 60.6359 32.3833 60.8677 32.3833C61.3767 32.3833 61.7202 32.5943 61.8986 33.0164C61.9968 33.2475 62.0463 33.5775 62.0463 34.0076V36.7426H61.4332V34.055C61.4332 33.7952 61.4011 33.5855 61.3363 33.4265C61.2291 33.1607 61.0346 33.0285 60.7541 33.0285C60.635 33.0247 60.5163 33.0421 60.4029 33.0799C60.2373 33.1387 60.0929 33.2549 59.9677 33.4305C59.8675 33.5708 59.8021 33.7164 59.7719 33.866C59.7417 34.0163 59.727 34.2307 59.727 34.5092V36.7426H59.1242V32.4788ZM64.4285 32.3833C64.6827 32.3833 64.9292 32.4541 65.1679 32.5963C65.4061 32.7386 65.5884 32.9223 65.7136 33.148C65.8336 33.3624 65.9139 33.6135 65.9543 33.9001C65.9896 34.0964 66.0076 34.4097 66.0076 34.8398H63.3808C63.3917 35.2719 63.4778 35.6192 63.6382 35.8804C63.7987 36.1422 64.0478 36.2724 64.3848 36.2724C64.6993 36.2724 64.9497 36.1495 65.1378 35.9024C65.245 35.7588 65.3207 35.5932 65.365 35.4048H65.9575C65.9343 35.5873 65.8816 35.7643 65.8015 35.9285C65.7266 36.1003 65.6271 36.2593 65.5062 36.4C65.3258 36.6108 65.0888 36.7606 64.8258 36.8301C64.6657 36.8745 64.5004 36.8958 64.3347 36.8936C63.8886 36.8936 63.5105 36.7006 63.2004 36.3145C62.8897 35.9285 62.735 35.3875 62.735 34.6922C62.735 34.0076 62.891 33.4512 63.2037 33.0245C63.5156 32.597 63.9239 32.3833 64.4285 32.3833ZM65.3888 34.2701C65.3637 33.9595 65.3073 33.7117 65.218 33.526C65.053 33.1807 64.777 33.0084 64.3912 33.0084C64.1152 33.0084 63.8828 33.1273 63.6954 33.3644C63.5079 33.6022 63.4084 33.9041 63.3975 34.2701H65.3888ZM67.1053 35.4048C67.1233 35.6439 67.1733 35.8269 67.2555 35.9538C67.4076 36.1849 67.6708 36.3005 68.0451 36.3005C68.2685 36.3005 68.4649 36.243 68.6344 36.1268C68.8038 36.012 68.8886 35.833 68.8886 35.5925C68.8886 35.4088 68.8205 35.2693 68.6844 35.1737C68.5978 35.1156 68.4257 35.0482 68.169 34.9707L67.6907 34.8278C67.3852 34.7376 67.1599 34.6368 67.0148 34.5252C66.7561 34.3315 66.6264 34.063 66.6264 33.7211C66.6264 33.3177 66.7484 32.9911 66.993 32.7419C67.2369 32.4921 67.5656 32.3679 67.9783 32.3679C68.5182 32.3679 68.9078 32.5556 69.1466 32.933C69.2956 33.1714 69.3681 33.4292 69.3636 33.705H68.7948C68.785 33.5471 68.7355 33.3946 68.6511 33.2629C68.513 33.0745 68.273 32.9804 67.9321 32.9804C67.7042 32.9804 67.5315 33.0325 67.4147 33.136C67.3573 33.1859 67.3117 33.2488 67.2812 33.3199C67.2507 33.3909 67.2362 33.4683 67.2388 33.5461C67.2388 33.7318 67.3158 33.88 67.4699 33.9916C67.5591 34.0584 67.6907 34.1165 67.8647 34.1666L68.2627 34.2821C68.696 34.407 68.9855 34.5279 69.1331 34.6448C69.3674 34.8278 69.4843 35.1156 69.4843 35.5084C69.49 35.8725 69.36 36.2249 69.1216 36.4915C68.8789 36.7673 68.5105 36.9056 68.0155 36.9056C67.4827 36.9056 67.1047 36.7613 66.8825 36.4735C66.6604 36.1863 66.5423 35.8296 66.5263 35.4048H67.1053ZM70.5319 35.4048C70.5499 35.6439 70.5999 35.8269 70.6821 35.9538C70.8343 36.1849 71.0974 36.3005 71.4717 36.3005C71.6951 36.3005 71.8915 36.243 72.061 36.1268C72.2304 36.012 72.3152 35.833 72.3152 35.5925C72.3152 35.4088 72.2471 35.2693 72.111 35.1737C72.0244 35.1156 71.8523 35.0482 71.5956 34.9707L71.1173 34.8278C70.8118 34.7376 70.5865 34.6368 70.4414 34.5252C70.1827 34.3315 70.053 34.063 70.053 33.7211C70.053 33.3177 70.175 32.9911 70.4196 32.7419C70.6635 32.4921 70.9922 32.3679 71.4049 32.3679C71.9448 32.3679 72.3344 32.5556 72.5732 32.933C72.7222 33.1714 72.7947 33.4292 72.7902 33.705H72.2215C72.2117 33.5471 72.1621 33.3946 72.0777 33.2629C71.9397 33.0745 71.6996 32.9804 71.3587 32.9804C71.1308 32.9804 70.9581 33.0325 70.8413 33.136C70.784 33.1859 70.7383 33.2488 70.7078 33.3199C70.6773 33.3909 70.6628 33.4683 70.6654 33.5461C70.6654 33.7318 70.7425 33.88 70.8965 33.9916C70.9857 34.0584 71.1173 34.1165 71.2913 34.1666L71.6893 34.2821C72.1226 34.407 72.4121 34.5279 72.5598 34.6448C72.7941 34.8278 72.9109 35.1156 72.9109 35.5084C72.9165 35.8726 72.7863 36.225 72.5476 36.4915C72.3056 36.7673 71.9377 36.9056 71.4422 36.9056C70.9087 36.9056 70.5306 36.7613 70.3092 36.4735C70.087 36.1863 69.9689 35.8296 69.9529 35.4048H70.5319Z" fill="white"/>
<path d="M33.7539 30.8945H37.1638V31.6112H34.4196V33.3865H36.8326V34.0831H34.4196V36.7426H33.7539V30.8945ZM39.218 36.2804C39.6179 36.2804 39.892 36.1008 40.0397 35.7415C40.192 35.3614 40.2678 34.953 40.2624 34.5412C40.2624 34.1432 40.2085 33.8192 40.1019 33.5695C39.9325 33.1767 39.6397 32.9804 39.2251 32.9804C38.8566 32.9804 38.5896 33.1473 38.422 33.482C38.2551 33.8159 38.171 34.22 38.171 34.6922C38.171 35.1464 38.2545 35.5244 38.4214 35.8269C38.5889 36.1295 38.8547 36.2811 39.218 36.2811V36.2804ZM39.2418 32.3552C39.7039 32.3552 40.0936 32.5389 40.4126 32.9049C40.7317 33.2709 40.8915 33.8099 40.8915 34.5212C40.8915 35.2085 40.7503 35.7769 40.4698 36.2243C40.1886 36.6732 39.7527 36.8976 39.1615 36.8976C38.6685 36.8976 38.2769 36.6992 37.9868 36.3025C37.6966 35.9058 37.5522 35.3728 37.5522 34.7042C37.5522 33.9876 37.705 33.4172 38.0105 32.9924C38.3161 32.5676 38.7263 32.3552 39.2418 32.3552ZM41.6239 32.4788H42.1965V33.2155C42.2434 33.0719 42.3583 32.8976 42.5413 32.6918C42.7242 32.4861 42.9348 32.3833 43.1736 32.3833C43.1845 32.3833 43.2037 32.3846 43.2307 32.3873L43.3674 32.4033V33.1594C43.3028 33.1442 43.2366 33.1374 43.1704 33.1393C42.8667 33.1393 42.6337 33.2555 42.4707 33.488C42.3082 33.7204 42.2267 33.9876 42.2267 34.2901V36.7426H41.6239V32.4788ZM47.721 33.3671C48.0021 33.3671 48.221 33.3203 48.377 33.2268C48.6222 33.0812 48.7449 32.8187 48.7449 32.4387C48.7449 32.0567 48.6145 31.7995 48.3533 31.6666C48.2063 31.5925 47.9874 31.5551 47.6979 31.5551H46.5103V33.3664H47.721V33.3671ZM47.9457 36.0654C48.3533 36.0654 48.6447 35.9251 48.8187 35.6439C48.9278 35.4656 48.9824 35.2512 48.9824 34.9988C48.9824 34.574 48.8232 34.2848 48.5041 34.1305C48.3347 34.049 48.1106 34.0076 47.8314 34.0076H46.5097V36.0654H47.945H47.9457ZM45.8568 30.8945H47.9681C48.5439 30.8945 48.9528 31.0989 49.1961 31.5077C49.3386 31.7488 49.4105 32.028 49.4105 32.3439C49.4105 32.7125 49.3219 33.0151 49.1461 33.2509C49.0373 33.3909 48.9032 33.5073 48.7513 33.5935C49.0029 33.707 49.1916 33.8366 49.3162 33.9795C49.5376 34.2347 49.6481 34.586 49.6481 35.0348C49.6481 35.4115 49.5486 35.7528 49.3502 36.0574C49.0536 36.5142 48.5818 36.7426 47.9347 36.7426H45.8568V30.8945ZM50.9666 32.4788V35.3093C50.9666 35.5271 50.9955 35.7047 51.0532 35.843C51.1604 36.0974 51.3601 36.225 51.6522 36.225C52.072 36.225 52.357 36.0019 52.5091 35.5558C52.5913 35.3173 52.633 34.9894 52.633 34.5726V32.4788H53.2351V36.7426H52.6664L52.6728 36.1135C52.6005 36.2674 52.502 36.4063 52.382 36.5236C52.1522 36.7466 51.873 36.8575 51.5449 36.8575C51.0346 36.8575 50.686 36.6551 50.5012 36.2491C50.401 36.0313 50.3503 35.7408 50.3503 35.3768V32.4788H50.9666ZM54.5331 35.4048C54.5511 35.6439 54.6012 35.8269 54.684 35.9538C54.8355 36.1849 55.0987 36.3005 55.4736 36.3005C55.6969 36.3005 55.8934 36.243 56.0628 36.1268C56.2323 36.012 56.317 35.833 56.317 35.5925C56.317 35.4088 56.249 35.2693 56.1129 35.1737C56.0256 35.1156 55.8542 35.0482 55.5974 34.9707L55.1192 34.8278C54.8136 34.7376 54.5883 34.6368 54.4433 34.5252C54.1846 34.3315 54.0549 34.063 54.0549 33.7211C54.0549 33.3177 54.1769 32.9911 54.4208 32.7419C54.6654 32.4921 54.994 32.3679 55.4068 32.3679C55.946 32.3679 56.3357 32.5556 56.5751 32.933C56.724 33.1714 56.7966 33.4292 56.7921 33.705H56.2233C56.2135 33.5471 56.1639 33.3946 56.0795 33.2629C55.9409 33.0745 55.7008 32.9804 55.3599 32.9804C55.132 32.9804 54.96 33.0325 54.8432 33.136C54.7858 33.1859 54.7402 33.2488 54.7097 33.3199C54.6792 33.3909 54.6647 33.4683 54.6673 33.5461C54.6673 33.7318 54.7443 33.88 54.8984 33.9916C54.9876 34.0584 55.1192 34.1165 55.2932 34.1666L55.6912 34.2821C56.1238 34.407 56.414 34.5279 56.561 34.6448C56.7953 34.8278 56.9128 35.1156 56.9128 35.5084C56.9183 35.8726 56.7881 36.225 56.5494 36.4915C56.3074 36.7673 55.9389 36.9056 55.4434 36.9056C54.9106 36.9056 54.5331 36.7613 54.311 36.4735C54.0889 36.1863 53.9702 35.8296 53.9548 35.4048H54.5331ZM57.6015 32.4988H58.2139V36.7426H57.6022V32.4988H57.6015ZM57.6015 30.8945H58.2139V31.7067H57.6022V30.8945H57.6015ZM59.1242 32.4788H59.6968V33.0839C59.8663 32.8348 60.046 32.6551 60.2354 32.5469C60.4247 32.438 60.6359 32.3833 60.8677 32.3833C61.3767 32.3833 61.7202 32.5943 61.8986 33.0164C61.9968 33.2475 62.0463 33.5775 62.0463 34.0076V36.7426H61.4332V34.055C61.4332 33.7952 61.4011 33.5855 61.3363 33.4265C61.2291 33.1607 61.0346 33.0285 60.7541 33.0285C60.635 33.0247 60.5163 33.0421 60.4029 33.0799C60.2373 33.1387 60.0929 33.2549 59.9677 33.4305C59.8675 33.5708 59.8021 33.7164 59.7719 33.866C59.7417 34.0163 59.727 34.2307 59.727 34.5092V36.7426H59.1242V32.4788ZM64.4285 32.3833C64.6827 32.3833 64.9292 32.4541 65.1679 32.5963C65.4061 32.7386 65.5884 32.9223 65.7136 33.148C65.8336 33.3624 65.9139 33.6135 65.9543 33.9001C65.9896 34.0964 66.0076 34.4097 66.0076 34.8398H63.3808C63.3917 35.2719 63.4778 35.6192 63.6382 35.8804C63.7987 36.1422 64.0478 36.2724 64.3848 36.2724C64.6993 36.2724 64.9497 36.1495 65.1378 35.9024C65.245 35.7588 65.3207 35.5932 65.365 35.4048H65.9575C65.9343 35.5873 65.8816 35.7643 65.8015 35.9285C65.7266 36.1003 65.6271 36.2593 65.5062 36.4C65.3258 36.6108 65.0888 36.7606 64.8258 36.8301C64.6657 36.8745 64.5004 36.8958 64.3347 36.8936C63.8886 36.8936 63.5105 36.7006 63.2004 36.3145C62.8897 35.9285 62.735 35.3875 62.735 34.6922C62.735 34.0076 62.891 33.4512 63.2037 33.0245C63.5156 32.597 63.9239 32.3833 64.4285 32.3833ZM65.3888 34.2701C65.3637 33.9595 65.3073 33.7117 65.218 33.526C65.053 33.1807 64.777 33.0084 64.3912 33.0084C64.1152 33.0084 63.8828 33.1273 63.6954 33.3644C63.5079 33.6022 63.4084 33.9041 63.3975 34.2701H65.3888ZM67.1053 35.4048C67.1233 35.6439 67.1733 35.8269 67.2555 35.9538C67.4076 36.1849 67.6708 36.3005 68.0451 36.3005C68.2685 36.3005 68.4649 36.243 68.6344 36.1268C68.8038 36.012 68.8886 35.833 68.8886 35.5925C68.8886 35.4088 68.8205 35.2693 68.6844 35.1737C68.5978 35.1156 68.4257 35.0482 68.169 34.9707L67.6907 34.8278C67.3852 34.7376 67.1599 34.6368 67.0148 34.5252C66.7561 34.3315 66.6264 34.063 66.6264 33.7211C66.6264 33.3177 66.7484 32.9911 66.993 32.7419C67.2369 32.4921 67.5656 32.3679 67.9783 32.3679C68.5182 32.3679 68.9078 32.5556 69.1466 32.933C69.2956 33.1714 69.3681 33.4292 69.3636 33.705H68.7948C68.785 33.5471 68.7355 33.3946 68.6511 33.2629C68.513 33.0745 68.273 32.9804 67.9321 32.9804C67.7042 32.9804 67.5315 33.0325 67.4147 33.136C67.3573 33.1859 67.3117 33.2488 67.2812 33.3199C67.2507 33.3909 67.2362 33.4683 67.2388 33.5461C67.2388 33.7318 67.3158 33.88 67.4699 33.9916C67.5591 34.0584 67.6907 34.1165 67.8647 34.1666L68.2627 34.2821C68.696 34.407 68.9855 34.5279 69.1331 34.6448C69.3674 34.8278 69.4843 35.1156 69.4843 35.5084C69.49 35.8725 69.36 36.2249 69.1216 36.4915C68.8789 36.7673 68.5105 36.9056 68.0155 36.9056C67.4827 36.9056 67.1047 36.7613 66.8825 36.4735C66.6604 36.1863 66.5423 35.8296 66.5263 35.4048H67.1053ZM70.5319 35.4048C70.5499 35.6439 70.5999 35.8269 70.6821 35.9538C70.8343 36.1849 71.0974 36.3005 71.4717 36.3005C71.6951 36.3005 71.8915 36.243 72.061 36.1268C72.2304 36.012 72.3152 35.833 72.3152 35.5925C72.3152 35.4088 72.2471 35.2693 72.111 35.1737C72.0244 35.1156 71.8523 35.0482 71.5956 34.9707L71.1173 34.8278C70.8118 34.7376 70.5865 34.6368 70.4414 34.5252C70.1827 34.3315 70.053 34.063 70.053 33.7211C70.053 33.3177 70.175 32.9911 70.4196 32.7419C70.6635 32.4921 70.9922 32.3679 71.4049 32.3679C71.9448 32.3679 72.3344 32.5556 72.5732 32.933C72.7222 33.1714 72.7947 33.4292 72.7902 33.705H72.2215C72.2117 33.5471 72.1621 33.3946 72.0777 33.2629C71.9397 33.0745 71.6996 32.9804 71.3587 32.9804C71.1308 32.9804 70.9581 33.0325 70.8413 33.136C70.784 33.1859 70.7383 33.2488 70.7078 33.3199C70.6773 33.3909 70.6628 33.4683 70.6654 33.5461C70.6654 33.7318 70.7425 33.88 70.8965 33.9916C70.9857 34.0584 71.1173 34.1165 71.2913 34.1666L71.6893 34.2821C72.1226 34.407 72.4121 34.5279 72.5598 34.6448C72.7941 34.8278 72.9109 35.1156 72.9109 35.5084C72.9165 35.8726 72.7863 36.225 72.5476 36.4915C72.3056 36.7673 71.9377 36.9056 71.4422 36.9056C70.9087 36.9056 70.5306 36.7613 70.3092 36.4735C70.087 36.1863 69.9689 35.8296 69.9529 35.4048H70.5319Z" fill="white"/>
</svg>
