<svg width="117" height="45" viewBox="0 0 117 45" fill="none" xmlns="http://www.w3.org/2000/svg">
<path d="M12.7656 24.7269C12.7656 23.6497 13.5913 22.7764 14.6098 22.7764C15.6283 22.7764 16.454 23.6496 16.454 24.7269V28.9566C16.454 30.0339 15.6283 30.9072 14.6098 30.9072C13.5913 30.9072 12.7656 30.0339 12.7656 28.9566V24.7269Z" fill="white"/>
<path d="M12.7656 26.3529C12.7656 25.2757 13.5913 24.4023 14.6098 24.4023C15.6283 24.4023 16.454 25.2757 16.454 26.3529V28.9564C16.454 30.0337 15.6283 30.907 14.6098 30.907C13.5913 30.907 12.7656 30.0337 12.7656 28.9564V26.3529Z" fill="white"/>
<path d="M17.5605 21.7709C17.5605 20.6936 18.3862 19.8203 19.4047 19.8203C20.4232 19.8203 21.2489 20.6936 21.2489 21.7709V28.9572C21.2489 30.0345 20.4232 30.9078 19.4047 30.9078C18.3862 30.9078 17.5605 30.0345 17.5605 28.9572V21.7709Z" fill="white"/>
<path d="M17.5605 24.9383C17.5605 23.8611 18.3862 22.9878 19.4047 22.9878C20.4232 22.9878 21.2489 23.8611 21.2489 24.9383V28.9569C21.2489 30.0341 20.4232 30.9074 19.4047 30.9074C18.3862 30.9074 17.5605 30.0341 17.5605 28.9569V24.9383Z" fill="white"/>
<path d="M22.3555 18.8139C22.3555 17.7366 23.1811 16.8633 24.1996 16.8633C25.2182 16.8633 26.0438 17.7366 26.0438 18.8139V28.9568C26.0438 30.0341 25.2182 30.9075 24.1996 30.9075C23.1811 30.9075 22.3555 30.0341 22.3555 28.9568V18.8139Z" fill="white"/>
<path d="M22.3555 23.495C22.3555 22.4178 23.1811 21.5444 24.1996 21.5444C25.2182 21.5444 26.0438 22.4178 26.0438 23.495V28.9566C26.0438 30.0339 25.2182 30.9072 24.1996 30.9072C23.1811 30.9072 22.3555 30.0339 22.3555 28.9566V23.495Z" fill="white"/>
<path d="M37.3935 32.4118C41.0553 32.4118 44.0428 30.0359 44.6108 26.4415H40.9226C40.3575 28.2257 39.2244 29.2001 37.4997 29.2001C35.0851 29.2001 33.5992 27.692 33.5195 25.0948H44.7435C45.2212 19.5092 42.2758 15.8228 37.2609 15.8228C32.6705 15.8228 29.4863 19.202 29.4863 24.1173C29.4863 29.1164 32.6174 32.4118 37.3935 32.4118ZM33.5992 22.8192C33.838 20.557 35.2974 18.811 37.367 18.811C39.5163 18.811 40.896 20.6967 41.0553 22.8192H33.5992Z" fill="white"/>
<path d="M53.8706 32.4677C55.9933 32.4677 57.9569 31.3226 58.6998 29.4794V32.0767H62.733V16.13H58.6998V18.839C57.9303 16.9399 55.9933 15.8228 53.844 15.8228C50.0762 15.8228 47.1309 18.7552 47.1309 24.1173C47.1309 29.4794 50.1027 32.4677 53.8706 32.4677ZM55.0115 28.9209C52.7561 28.9209 51.1641 27.1614 51.1641 24.1173C51.1641 21.1011 52.7561 19.3417 54.985 19.3417C57.2404 19.3417 58.8325 21.129 58.8325 24.1173C58.8325 27.1335 57.2404 28.9209 55.0115 28.9209Z" fill="white"/>
<path d="M66.2148 32.1046H70.2481V24.5641C70.2481 20.8497 72.3442 19.3696 75.3692 19.956V15.9344C72.3442 15.5714 70.7787 17.0516 70.2481 18.5317V16.1299H66.2148V32.1046Z" fill="white"/>
<path d="M77.332 32.1046H81.3652V23.9497C81.3652 20.9894 82.2939 19.4254 84.6291 19.4254C86.8846 19.4254 87.9195 20.766 87.9195 23.6984V32.1046H91.9522V23.3074C91.9522 18.2804 90.1213 15.8228 86.062 15.8228C83.7534 15.8228 82.0551 16.9399 81.3652 18.6993V16.13H77.332V32.1046Z" fill="white"/>
<path d="M95.084 32.1046H99.1174V24.5641C99.1174 20.8497 101.214 19.3696 104.238 19.956V15.9344C101.214 15.5714 99.6481 17.0516 99.1174 18.5317V16.1299H95.084V32.1046Z" fill="white"/>
</svg>
