<svg width="119" height="44" viewBox="0 0 119 44" fill="none" xmlns="http://www.w3.org/2000/svg">
<path d="M28.0212 13.9385V18.9257C26.8334 17.8135 25.2262 17.3112 23.7588 17.3112C19.9504 17.3112 17.0156 20.1815 17.0156 24.1282C17.0156 28.075 19.9155 30.9813 23.9684 30.9813C28.0212 30.9813 30.9211 28.1109 30.9211 23.913V13.9385H28.0212ZM23.9684 28.2903C21.6275 28.2903 19.9854 26.6399 19.9854 24.1282C19.9854 21.6167 21.6624 20.0021 24.0033 20.0021C26.3442 20.0021 28.0212 21.6167 28.0212 24.0924C28.0212 26.6399 26.3442 28.2903 23.9684 28.2903Z" fill="white"/>
<path d="M32.7031 13.9385V16.6653H38.0487V30.7301H41.0884V16.6653H46.4689V13.9385H32.7031Z" fill="white"/>
<path d="M51.8493 17.311C48.9144 17.311 46.4688 19.5356 46.4688 23.2312V30.73H49.3686V23.3388C49.3686 20.9707 50.312 20.002 52.0938 20.002C53.2468 20.002 54.1902 20.5761 54.6094 21.0066L56.2166 18.8897C55.2383 18.0286 53.8757 17.311 51.8493 17.311Z" fill="white"/>
<path d="M57.7877 17.5982V30.7301H60.6876V17.5982H57.7877ZM59.2552 12.9697C58.3468 12.9697 57.5781 13.7232 57.5781 14.6561C57.5781 15.5531 58.3118 16.3065 59.2552 16.3065C60.1985 16.3065 60.8623 15.5531 60.8623 14.6561C60.8623 13.7232 60.1635 12.9697 59.2552 12.9697Z" fill="white"/>
<path d="M69.318 17.311C65.2651 17.311 62.3652 20.2173 62.3652 24.4151V34.8202H65.3001V29.3666C66.488 30.4788 68.0952 30.9811 69.5626 30.9811C73.3709 30.9811 76.3057 28.1108 76.3057 24.1999C76.3057 20.2531 73.4058 17.311 69.318 17.311ZM69.318 28.2901C66.9771 28.2901 65.3001 26.6756 65.3001 24.1999C65.3001 21.6883 66.9771 20.0379 69.3529 20.0379C71.7288 20.0379 73.3709 21.6883 73.3709 24.1999C73.3709 26.6756 71.6938 28.2901 69.318 28.2901Z" fill="white"/>
<path d="M84.9698 17.311C80.9169 17.311 78.0176 20.2173 78.0176 24.4151V34.8202H80.9524V29.3666C82.1401 30.4788 83.7118 30.9811 85.2148 30.9811C89.0228 30.9811 91.9576 28.1108 91.9576 24.1999C91.9576 20.2531 89.0228 17.311 84.9698 17.311ZM84.9698 28.2901C82.6292 28.2901 80.9524 26.6756 80.9524 24.1999C80.9524 21.6883 82.6292 20.0379 85.0046 20.0379C87.3807 20.0379 89.0228 21.6883 89.0228 24.1999C89.0228 26.6756 87.3112 28.2901 84.9698 28.2901Z" fill="white"/>
<path d="M95.3814 19.392C93.0756 21.7601 92.8314 26.0298 95.2068 28.7207C97.5126 31.5911 102.963 31.8423 105.549 28.7207L103.522 26.9627C101.636 29.1513 97.2337 28.7207 96.5343 25.1686H107.156C108.169 17.8133 99.4344 15.0147 95.3814 19.392ZM96.6742 22.6929C97.7228 19.0691 103.103 19.105 104.151 22.6929H96.6742Z" fill="white"/>
<path d="M114.666 17.311C111.731 17.311 109.285 19.5356 109.285 23.2312V30.73H112.185V23.3388C112.185 20.9707 113.129 20.002 114.911 20.002C116.064 20.002 116.972 20.5761 117.426 21.0066L118.998 18.8897C118.055 18.0286 116.693 17.311 114.666 17.311Z" fill="white"/>
<path d="M8.28041 32.1655C3.94804 32.1655 3.59866 29.1157 3.56372 28.1469C3.56372 27.6805 3.6336 27.1782 3.73842 26.64C1.46741 26.4247 0 24.8461 0 22.5856C0 18.3877 6.77805 13.2928 13.4164 12.4676C14.185 12.3599 14.8838 12.934 14.9536 13.7234C15.0585 14.5127 14.4995 15.2303 13.7308 15.3021C7.89605 16.0555 2.79508 20.3611 2.79508 22.5856C2.79508 23.8055 3.77335 23.8414 4.96126 23.8414C6.63831 21.0428 9.57311 18.5312 12.3682 18.4595C15.7223 18.3877 17.1547 21.9398 14.8838 24.2002C13.1019 25.9942 9.29361 26.5324 6.67324 26.6759C6.46361 27.2141 6.35879 27.7164 6.35879 28.1469C6.35879 28.5416 6.35879 29.331 8.28041 29.331C10.9707 29.331 14.9187 27.824 17.4692 25.7789C18.0981 25.3125 18.9716 25.4201 19.4258 26.0301C19.88 26.6759 19.7751 27.5729 19.1812 28.0393C16.1415 30.4433 11.5647 32.1655 8.28041 32.1655ZM12.4381 21.3298C11.2152 21.3657 9.81768 22.3344 8.62976 23.5903C10.5863 23.3391 12.2284 22.8368 12.9272 22.1551C13.1019 21.9757 13.2766 21.6886 13.1019 21.5451C12.9621 21.3657 12.6477 21.3298 12.4381 21.3298Z" fill="white"/>
</svg>
