<svg width="119" height="44" viewBox="0 0 119 44" fill="none" xmlns="http://www.w3.org/2000/svg">
<mask id="mask0_149_34" style="mask-type:luminance" maskUnits="userSpaceOnUse" x="17" y="5" width="84" height="33">
<path d="M100.474 5.02344H17.2246V37.9724H100.474V5.02344Z" fill="white"/>
</mask>
<g mask="url(#mask0_149_34)">
<path d="M76.1183 6.97363C75.839 6.97363 75.5625 7.02866 75.3045 7.13557C75.0464 7.24248 74.812 7.39917 74.6146 7.59671C74.4171 7.79424 74.2605 8.02874 74.1537 8.2868C74.047 8.54487 73.9921 8.82145 73.9922 9.10073V10.6031C73.9922 10.7686 74.0579 10.9272 74.1749 11.0442C74.2918 11.1611 74.4505 11.2269 74.6159 11.2269H76.1183C76.6822 11.2269 77.223 11.0029 77.6217 10.6041C78.0204 10.2054 78.2444 9.66462 78.2444 9.10073C78.2444 8.53685 78.0204 7.99606 77.6217 7.59734C77.223 7.19861 76.6822 6.97363 76.1183 6.97363Z" fill="white"/>
<path d="M17.2246 8.59766V32.0978H29.8637V28.0338H21.5749V22.4714H29.5185V18.4114H21.5749V12.6645H29.8637V8.59766H17.2246Z" fill="white"/>
<path d="M46.691 37.9719V30.4138C46.0047 31.1451 45.1723 31.7239 44.2478 32.1125C43.3232 32.5011 42.3273 32.6908 41.3247 32.6694C36.1172 32.6694 32.4338 28.1278 32.4338 23.1106C32.4185 20.7096 33.3439 18.3979 35.0119 16.6707C36.6799 14.9435 38.9578 13.9381 41.358 13.8697C42.4609 13.8035 43.5618 14.03 44.549 14.5263C45.5362 15.0227 46.3746 15.7712 46.9793 16.696H47.042V14.4718H50.9167V37.9719H46.691ZM41.8013 17.7434C41.1043 17.7628 40.418 17.9196 39.7818 18.2049C39.1456 18.4902 38.572 18.8983 38.0939 19.4058C37.6158 19.9133 37.2427 20.5103 36.9958 21.1624C36.749 21.8145 36.6334 22.5089 36.6556 23.2058C36.6556 26.2233 38.6896 28.7957 41.8326 28.7957C43.2327 28.7352 44.5521 28.1242 45.5039 27.0957C46.4557 26.0672 46.9627 24.7043 46.9145 23.3038C46.9445 22.603 46.836 21.9031 46.5951 21.2443C46.3542 20.5854 45.9857 19.9806 45.5108 19.4644C45.0358 18.9481 44.4637 18.5307 43.8271 18.2358C43.1906 17.941 42.5022 17.7747 41.8013 17.7463" fill="white"/>
<path d="M66.2791 32.0965V30.3186H66.2134C65.7308 31.0761 65.0566 31.6927 64.2591 32.106C63.4616 32.5193 62.5691 32.7146 61.6719 32.6722C60.5352 32.715 59.405 32.4834 58.3769 31.9969C57.3487 31.5103 56.4529 30.7833 55.7652 29.8772C54.558 28.1306 54.4629 25.8761 54.4629 23.8117V14.4717H58.6867V23.4597C58.6867 25.9996 59.1947 28.7946 62.3711 28.7946C65.2926 28.7946 65.9281 25.8417 65.9281 23.491V14.4688H70.1519V32.0965H66.2791Z" fill="white"/>
<path d="M78.259 14.4717H74.0352V32.0965H78.259V14.4717Z" fill="white"/>
<path d="M91.646 32.6688C90.6313 32.7111 89.6195 32.5312 88.6815 32.1416C87.7436 31.7519 86.9021 31.1621 86.216 30.4132V37.9713H81.9922V14.4722H85.8669V16.5316H85.9296C86.6024 15.6653 87.4717 14.9715 88.4657 14.5076C89.4597 14.0438 90.5499 13.8232 91.646 13.8642C96.8221 13.8642 100.472 18.1792 100.472 23.2003C100.472 28.1861 96.8191 32.6639 91.646 32.6639M91.1704 17.7379C90.4637 17.7527 89.767 17.9082 89.121 18.1951C88.475 18.482 87.8926 18.8948 87.4078 19.4092C86.923 19.9235 86.5454 20.5293 86.2972 21.1912C86.049 21.853 85.935 22.5577 85.962 23.264C85.9181 24.3119 86.1877 25.349 86.7364 26.2427C87.2852 27.1365 88.088 27.8462 89.0423 28.2812C89.6818 28.609 90.389 28.7829 91.1076 28.7892C92.5193 28.7297 93.8507 28.1165 94.8135 27.0823C95.7762 26.0482 96.2928 24.6764 96.2513 23.264C96.302 21.8597 95.797 20.4919 94.8458 19.4574C93.8947 18.423 92.5741 17.8051 91.1704 17.7379Z" fill="white"/>
<path d="M83.5711 7.836H82.4825C82.4825 7.59279 82.3649 7.43392 82.1128 7.43392C81.9826 7.43269 81.8569 7.4816 81.7618 7.57051C81.6667 7.65943 81.6094 7.78153 81.6019 7.91151C81.6019 8.44794 83.3671 8.22239 83.3671 9.46099C83.3467 9.96846 83.1332 10.449 82.7703 10.8043C82.4073 11.1595 81.9224 11.3627 81.4146 11.3723C81.2284 11.3952 81.0394 11.3779 80.8605 11.3215C80.6816 11.2652 80.5168 11.1711 80.3774 11.0456C80.238 10.9201 80.1271 10.7661 80.0522 10.5941C79.9774 10.4221 79.9403 10.236 79.9436 10.0484C79.9436 9.95035 79.9514 9.85228 79.9602 9.75421H81.1096C81.1351 10.0896 81.2184 10.3495 81.6127 10.3495C81.7677 10.3519 81.9175 10.2937 82.0301 10.1873C82.1428 10.0808 82.2094 9.93458 82.2158 9.77971C82.2158 9.15109 80.4731 9.43647 80.4731 8.12922C80.5027 7.66192 80.7102 7.22371 81.0529 6.90468C81.3957 6.58565 81.8476 6.41006 82.3158 6.41401C82.4799 6.4048 82.6441 6.42917 82.7984 6.48564C82.9527 6.54211 83.0938 6.62949 83.2132 6.74241C83.3325 6.85534 83.4276 6.99144 83.4925 7.14239C83.5574 7.29333 83.5908 7.45594 83.5907 7.62025C83.5886 7.69249 83.582 7.76454 83.5711 7.836Z" fill="white"/>
<path d="M86.1436 11.3744C85.8909 11.393 85.6374 11.3484 85.4063 11.2444C85.1751 11.1405 84.9735 10.9806 84.8197 10.7792L84.451 12.7729H83.3359L84.4843 6.57202H85.5062L85.4081 7.11728H85.4258C85.6322 6.89247 85.8837 6.71366 86.1639 6.59251C86.444 6.47136 86.7465 6.41058 87.0517 6.41413C87.313 6.40348 87.5736 6.44835 87.8163 6.5458C88.059 6.64325 88.2783 6.79106 88.4596 6.97947C88.641 7.16788 88.7803 7.39261 88.8685 7.63883C88.9566 7.88505 88.9915 8.14716 88.9709 8.40786C88.9557 9.16705 88.6563 9.89292 88.132 10.4421C87.6076 10.9914 86.8964 11.324 86.1387 11.3744M86.7418 7.43601C86.2897 7.46253 85.8647 7.66093 85.5541 7.99056C85.2434 8.32019 85.0705 8.75612 85.0708 9.20908C85.0659 9.3579 85.0911 9.50617 85.1451 9.64497C85.199 9.78376 85.2804 9.9102 85.3845 10.0167C85.4886 10.1232 85.6132 10.2075 85.7507 10.2645C85.8883 10.3216 86.0359 10.3502 86.1848 10.3486C86.6297 10.3171 87.0466 10.1203 87.3537 9.79692C87.6607 9.47352 87.8357 9.04693 87.8441 8.60106C87.8527 8.45144 87.8306 8.30165 87.7793 8.16085C87.728 8.02005 87.6485 7.89119 87.5457 7.78215C87.4429 7.67311 87.3189 7.58617 87.1814 7.52666C87.0439 7.46714 86.8956 7.4363 86.7458 7.43601" fill="white"/>
<path d="M91.4222 11.3742C91.1505 11.3844 90.8794 11.339 90.6259 11.2407C90.3723 11.1423 90.1415 10.9932 89.9476 10.8025C89.7537 10.6117 89.6009 10.3834 89.4985 10.1314C89.396 9.87946 89.3462 9.60922 89.352 9.33731C89.3944 8.56551 89.7241 7.83751 90.2761 7.2965C90.8282 6.7555 91.5628 6.44065 92.3353 6.41389C92.6043 6.40244 92.8729 6.44627 93.1244 6.54268C93.3758 6.6391 93.6049 6.78605 93.7973 6.97445C93.9898 7.16286 94.1416 7.38872 94.2433 7.63809C94.345 7.88746 94.3945 8.15503 94.3888 8.42429C94.3659 9.20211 94.0457 9.94156 93.494 10.4903C92.9423 11.0391 92.2002 11.3554 91.4222 11.3742ZM92.1519 7.43576C91.7541 7.4652 91.3772 7.62546 91.0801 7.89157C90.7829 8.15767 90.5822 8.51464 90.5092 8.90679C90.4928 9.00664 90.4846 9.10766 90.4847 9.20884C90.4765 9.3596 90.4997 9.51042 90.5529 9.65173C90.606 9.79304 90.688 9.92174 90.7936 10.0296C90.8992 10.1376 91.0261 10.2223 91.1663 10.2785C91.3064 10.3348 91.4567 10.3612 91.6076 10.3562C92.0498 10.3275 92.4648 10.1327 92.7693 9.8107C93.0738 9.48875 93.2452 9.06355 93.2493 8.62043C93.2575 8.47031 93.2352 8.32008 93.184 8.17876C93.1327 8.03744 93.0533 7.90794 92.9508 7.79803C92.8482 7.68813 92.7245 7.60008 92.587 7.53917C92.4496 7.47827 92.3012 7.44576 92.1509 7.44361" fill="white"/>
<path d="M97.3566 7.49474C97.0496 7.48828 96.7519 7.60049 96.5255 7.80801C96.2992 8.01554 96.1616 8.30238 96.1415 8.6088L95.6512 11.2233H94.5371L95.4001 6.5729H96.422L96.3465 6.98381H96.3631C96.4934 6.79224 96.6721 6.63865 96.8811 6.53872C97.0901 6.4388 97.3218 6.39611 97.5527 6.41501L97.3566 7.49474Z" fill="white"/>
<path d="M100.244 7.56243H99.5739L98.8953 11.2243H97.7812L98.4599 7.56243H97.9146L98.1 6.5739H98.6462L98.9287 5.02344H100.043L99.7573 6.57292H100.427L100.244 7.56243Z" fill="white"/>
</g>
</svg>
