<svg width="118" height="43" viewBox="0 0 118 43" fill="none" xmlns="http://www.w3.org/2000/svg">
<path d="M29.4883 21.4738V10.086C29.4883 10.0638 29.5103 10.0416 29.5322 10.0416H30.793C31.1089 10.0416 31.2874 10.1776 31.3561 10.4747L31.4907 11.4519C31.4907 11.4963 31.5594 11.5213 31.5813 11.4741C31.9632 11.0188 32.4136 10.6329 32.9081 10.3387C33.4245 10.0194 34.0095 9.85838 34.6852 9.85838C35.4269 9.85838 36.0339 10.0638 36.5064 10.4719C36.9569 10.8578 37.27 11.3825 37.4952 12.0182C37.5172 12.0626 37.5639 12.0626 37.5859 12.0182C37.7424 11.6546 37.9457 11.3603 38.1709 11.0854C38.4401 10.7912 38.7121 10.5635 39.0472 10.3581C39.3631 10.1749 39.6982 10.0388 40.058 9.95C40.4178 9.86116 40.7777 9.81396 41.1595 9.81396C41.7665 9.81396 42.3076 9.90558 42.7801 10.1082C43.2525 10.2915 43.6563 10.5857 43.9722 10.9494C44.3101 11.3131 44.5573 11.7684 44.7138 12.3125C44.8951 12.8594 44.9611 13.4729 44.9611 14.1531V21.3822C44.9611 21.4044 44.9391 21.4266 44.9171 21.4266H42.8488C42.8268 21.4266 42.8048 21.4044 42.8048 21.3822V14.1781C42.8048 13.3147 42.6235 12.679 42.2417 12.2459C41.8379 11.7684 41.2062 11.5407 40.3299 11.5879C40.2173 11.5879 40.0827 11.6101 39.9701 11.6573C39.5663 11.7712 39.2285 11.9516 38.9813 12.2487C38.778 12.4763 38.5994 12.7262 38.4868 13.0676C38.3742 13.4091 38.3083 13.7728 38.3083 14.1809V21.4072C38.3083 21.4294 38.2863 21.4516 38.2643 21.4516H36.196C36.174 21.4516 36.152 21.4294 36.152 21.4072V14.1781C36.152 13.2925 35.9735 12.6318 35.6356 12.2237C35.2978 11.8378 34.8473 11.6101 34.2183 11.5879C33.6552 11.5657 33.0701 11.7462 32.5977 12.0654C32.2818 12.2931 31.9686 12.5873 31.6967 12.951L31.6747 12.9732V21.3822C31.6747 21.4044 31.6528 21.4266 31.6308 21.4266H29.5157L29.4883 21.4738Z" fill="white"/>
<path d="M58.1873 10.0864V21.4076C58.1873 21.4298 58.1653 21.452 58.1434 21.452H56.8826C56.5914 21.452 56.3881 21.316 56.2975 21.0189L56.1629 19.9973C56.1629 19.9529 56.0942 19.9279 56.0723 19.9751C55.847 20.2027 55.6218 20.4304 55.3746 20.633C55.1054 20.8607 54.8115 21.0411 54.5203 21.1799C54.2292 21.316 53.8913 21.452 53.5534 21.5436C53.2156 21.6352 52.8338 21.6796 52.452 21.6796C51.823 21.6796 51.2818 21.5658 50.8094 21.3604C50.3369 21.1549 49.9331 20.8607 49.6173 20.4748C49.2898 20.0735 49.0451 19.61 48.8976 19.1117C48.741 18.5898 48.6504 17.9985 48.6504 17.3377V10.0864C48.6504 10.0642 48.6724 10.042 48.6943 10.042H50.7627C50.7847 10.042 50.8066 10.0642 50.8066 10.0864V17.3155C50.8066 18.1345 50.9879 18.7702 51.3697 19.2255C51.7515 19.6808 52.3146 19.9084 53.0782 19.9084C53.6413 19.9084 54.1577 19.7724 54.6302 19.5004C55.1026 19.2283 55.5751 18.8646 55.9569 18.4315C55.9569 18.4315 55.9789 18.4093 55.9789 18.3871V10.0864C55.9789 10.0642 56.0008 10.042 56.0228 10.042H58.0912C58.1653 10.042 58.1873 10.0642 58.1873 10.0864Z" fill="white"/>
<path d="M68.8008 12.0183C68.7322 12.1099 68.6882 12.1766 68.6196 12.2238C68.5509 12.2682 68.463 12.2932 68.3723 12.2932C68.2597 12.2932 68.1251 12.2487 67.9686 12.1793C67.834 12.0877 67.6527 11.9961 67.4522 11.9073C67.2489 11.8157 67.0017 11.724 66.7325 11.6352C66.4633 11.5436 66.1255 11.5214 65.7437 11.5214C65.4278 11.5214 65.1366 11.5658 64.8894 11.6352C64.6422 11.7046 64.4169 11.8184 64.2384 11.9545C64.0571 12.0905 63.9225 12.2487 63.8346 12.4542C63.744 12.6374 63.7 12.8401 63.7 13.0677C63.7 13.362 63.7907 13.5896 63.9472 13.7728C64.1038 13.9561 64.329 14.1143 64.5982 14.2503C64.8674 14.3864 65.1833 14.5002 65.5212 14.614C65.859 14.7278 66.2189 14.8417 66.5787 14.9555C66.9385 15.0693 67.2983 15.2053 67.6362 15.3636C67.9741 15.5218 68.2872 15.7051 68.5591 15.9327C68.8283 16.1603 69.0536 16.4324 69.2101 16.7517C69.3667 17.0709 69.4573 17.4568 69.4573 17.9343C69.4573 18.4562 69.3667 18.9559 69.1662 19.4112C68.9849 19.8665 68.6937 20.2524 68.3339 20.5939C67.9741 20.9353 67.5016 21.1852 66.9632 21.3656C66.4221 21.5489 65.7931 21.6377 65.0954 21.6377C64.3071 21.6377 63.5874 21.5017 62.9364 21.2518C62.3074 20.9797 61.7443 20.6827 61.2938 20.2746C61.2719 20.2524 61.2719 20.2302 61.2938 20.2052L61.7883 19.4084C61.8569 19.2946 61.9228 19.2252 62.0135 19.1586C62.1041 19.1142 62.2168 19.067 62.3733 19.067C62.5079 19.067 62.6645 19.1114 62.8018 19.2252C62.9584 19.339 63.1397 19.4529 63.3429 19.5667C63.5462 19.6805 63.7934 19.7943 64.1066 19.9081C64.3977 19.9998 64.7823 20.0664 65.23 20.0664C65.6118 20.0664 65.9277 20.022 66.1969 19.9304C66.4661 19.8387 66.6913 19.7027 66.8726 19.5445C67.0539 19.3862 67.1885 19.203 67.2764 18.9976C67.367 18.7921 67.411 18.5645 67.411 18.3396C67.411 18.0453 67.3203 17.7927 67.1638 17.5901C67.0072 17.3874 66.7819 17.2264 66.5128 17.0681C66.2436 16.9321 65.9277 16.7961 65.5898 16.7045C65.23 16.5906 64.8921 16.4768 64.5103 16.363C64.1505 16.2492 63.7907 16.1131 63.4308 15.9549C63.071 15.7967 62.7798 15.5912 62.5079 15.3636C62.2387 15.1137 62.0135 14.8417 61.8569 14.478C61.7004 14.1365 61.6097 13.7062 61.6097 13.2287C61.6097 12.7956 61.7004 12.3653 61.8789 11.9545C62.0602 11.5464 62.3294 11.2049 62.6672 10.8856C63.0051 10.5664 63.4308 10.3387 63.95 10.1583C64.4664 9.97507 65.0295 9.88623 65.6805 9.88623C66.4221 9.88623 67.0978 10.0001 67.7049 10.2499C68.2899 10.4998 68.8063 10.7968 69.2348 11.2271C69.2568 11.2493 69.2568 11.2715 69.2348 11.2965L68.8008 12.0183Z" fill="white"/>
<path d="M75.391 6.51899C75.391 6.72442 75.347 6.90488 75.2784 7.0881C75.1877 7.27133 75.0751 7.42957 74.9405 7.5656C74.8059 7.70163 74.6494 7.81545 74.4461 7.88486C74.2648 7.95426 74.0643 7.99868 73.861 7.99868C73.6578 7.99868 73.4792 7.95426 73.2979 7.88486C73.1633 7.84044 73.0507 7.77103 72.9381 7.67942C72.7568 7.52118 72.5783 7.31575 72.4876 7.0881C72.4189 6.90488 72.375 6.70222 72.375 6.51899C72.375 6.26914 72.4437 6.04149 72.5316 5.83606C72.5535 5.76665 72.6002 5.70002 72.6442 5.63062C72.8008 5.40298 73.026 5.22253 73.2732 5.13091C73.4545 5.06151 73.633 5.01709 73.8363 5.01709C74.0396 5.01709 74.2401 5.06151 74.4214 5.13091C74.6027 5.20032 74.7592 5.31414 74.9158 5.45017C75.0504 5.5862 75.163 5.74444 75.2537 5.92767C75.347 6.10812 75.391 6.29134 75.391 6.51899ZM74.9652 10.0863V21.4075C74.9652 21.4297 74.9433 21.4519 74.9213 21.4519H72.8529C72.831 21.4519 72.809 21.4297 72.809 21.4075V10.0863C72.809 10.0641 72.831 10.0419 72.8529 10.0419H74.9213C74.9433 10.0419 74.9652 10.0641 74.9652 10.0863Z" fill="white"/>
<path d="M86.9496 12.1763C86.8809 12.2679 86.815 12.3345 86.7463 12.3817C86.6776 12.4261 86.5897 12.4511 86.4771 12.4511C86.3645 12.4511 86.2299 12.4067 86.0953 12.3151C85.9607 12.2235 85.8041 12.1097 85.6009 12.0208C85.3976 11.907 85.1724 11.8154 84.8812 11.7266C84.612 11.6349 84.2522 11.5905 83.8457 11.5905C83.3045 11.5905 82.8348 11.6821 82.4283 11.8848C82.0218 12.0875 81.6867 12.3623 81.4175 12.726C81.1483 13.0896 80.945 13.5227 80.8104 14.0446C80.6759 14.5666 80.6072 15.1357 80.6072 15.7936C80.6072 16.4516 80.6759 17.0429 80.8324 17.5676C80.989 18.0895 81.1923 18.5226 81.4614 18.8863C81.7228 19.2428 82.0711 19.5249 82.4723 19.7052C82.876 19.8885 83.3045 19.9773 83.777 19.9773C84.2494 19.9773 84.6313 19.9079 84.9252 19.7941C85.241 19.6802 85.4883 19.5442 85.6888 19.4082C85.892 19.2721 86.0486 19.1583 86.1832 19.0223C86.3178 18.9085 86.4524 18.8391 86.587 18.8391C86.7683 18.8391 86.9029 18.9085 86.9908 19.0445L87.5978 19.8413C87.6198 19.8635 87.6198 19.8857 87.5978 19.9107C87.3286 20.2049 87.0567 20.4798 86.7435 20.7074C86.4277 20.9351 86.0678 21.1155 85.708 21.2543C85.3482 21.3903 84.9664 21.5042 84.5598 21.5736C84.1561 21.643 83.7495 21.6652 83.3457 21.6652C82.6481 21.6652 81.9751 21.5292 81.3653 21.2793C80.7583 21.0072 80.2171 20.6436 79.7694 20.1439C79.3217 19.6441 78.9591 19.0306 78.7119 18.3033C78.4427 17.5759 78.3301 16.7347 78.3301 15.802C78.3301 14.9608 78.4427 14.164 78.6899 13.4617C78.9022 12.7743 79.255 12.1396 79.7255 11.5989C80.1759 11.0769 80.7363 10.6661 81.412 10.3718C82.0877 10.0775 82.8513 9.9165 83.7056 9.9165C84.5159 9.9165 85.2356 10.0525 85.8426 10.3024C86.4277 10.5745 86.9908 10.9159 87.4632 11.3934C87.4852 11.4156 87.4852 11.4378 87.4632 11.4628L86.9496 12.1763Z" fill="white"/>
<path d="M31.5793 28.3285C32.0216 27.8815 32.5077 27.5012 33.0406 27.2319C33.5708 26.9626 34.1915 26.8072 34.8755 26.8072C35.4496 26.8072 35.9605 26.896 36.4027 27.0987C36.845 27.2985 37.1993 27.5678 37.5097 27.9259C37.7981 28.2841 38.0398 28.7088 38.1744 29.2002C38.3282 29.6916 38.3969 30.2524 38.3969 30.8326V37.5398C38.3969 37.562 38.3749 37.5842 38.353 37.5842H36.4274C36.4055 37.5842 36.3835 37.562 36.3835 37.5398V30.8326C36.3835 30.0719 36.2077 29.4917 35.8753 29.0669C35.521 28.6422 35.0128 28.4395 34.3042 28.4395C33.796 28.4395 33.3098 28.5728 32.8429 28.8199C32.4006 29.0669 31.9804 29.4001 31.604 29.8026C31.604 29.8026 31.5821 29.8248 31.5821 29.847V37.562C31.5821 37.5842 31.5601 37.6064 31.5381 37.6064H29.6318C29.6099 37.6064 29.5879 37.5842 29.5879 37.562V23.6562C29.5879 23.634 29.6099 23.6118 29.6318 23.6118H31.5354C31.5574 23.6118 31.5793 23.634 31.5793 23.6562V28.3285ZM50.5405 36.0434C50.5625 36.0656 50.5625 36.0878 50.5405 36.11C50.2961 36.3793 50.0324 36.6236 49.7 36.8485C49.3677 37.0484 49.0353 37.2288 48.659 37.3621C48.2827 37.4954 47.9064 37.587 47.53 37.6536C47.1318 37.7202 46.7554 37.7424 46.3791 37.7424C45.6485 37.7424 44.9865 37.6092 44.3657 37.3621C43.7449 37.115 43.2148 36.7597 42.7726 36.2655C42.3303 35.7963 41.976 35.1911 41.7096 34.4999C41.4651 33.7836 41.3332 32.9785 41.3332 32.0624C41.3332 31.324 41.4431 30.6327 41.6656 30.0053C41.8881 29.3779 42.2177 28.8199 42.638 28.3507C43.0582 27.8815 43.5884 27.5012 44.1872 27.2319C44.808 26.9626 45.4919 26.8294 46.2445 26.8294C46.8873 26.8294 47.4834 26.9404 48.0135 27.1431C48.5436 27.343 49.0298 27.6567 49.4061 28.0592C49.8044 28.4617 50.1148 28.9531 50.3345 29.5583C50.557 30.1385 50.6669 30.8326 50.6669 31.571C50.6669 31.8847 50.623 32.0846 50.557 32.1984C50.4911 32.3095 50.3593 32.3539 50.1807 32.3539H43.3934C43.3714 32.3539 43.3494 32.3761 43.3494 32.3983C43.3714 33.0008 43.4593 33.5393 43.6158 34.0085C43.7697 34.4777 43.9922 34.858 44.2806 35.1717C44.569 35.4854 44.9014 35.7075 45.2749 35.8657C45.6512 36.0212 46.0935 36.0906 46.5577 36.0906C46.9999 36.0906 47.3982 36.0462 47.7306 35.9352C48.0629 35.8241 48.3513 35.7103 48.5711 35.5992C48.8156 35.4882 49.0133 35.3744 49.1671 35.2633C49.321 35.1523 49.4775 35.1079 49.5874 35.1079C49.7412 35.1079 49.8758 35.1745 49.9637 35.2855L50.5405 36.0434ZM48.8568 31.1019C48.8787 31.1019 48.9007 31.0797 48.9007 31.0574C48.9007 30.6771 48.8348 30.319 48.7249 29.9831C48.615 29.6472 48.4365 29.3557 48.2167 29.0892C47.9943 28.8421 47.7306 28.6422 47.4202 28.5089C47.1098 28.3757 46.7335 28.3091 46.3132 28.3091C45.4727 28.3091 44.808 28.5561 44.3218 29.0475C43.8576 29.5167 43.5472 30.2107 43.3934 31.038C43.3934 31.0602 43.4153 31.1046 43.4373 31.1046H48.8568V31.1019ZM53.4824 28.5062V28.4395C54.0565 27.9037 54.6772 27.479 55.3639 27.2097C56.0506 26.9404 56.8033 26.7849 57.6218 26.7849C58.2179 26.7849 58.7508 26.8738 59.215 27.0764C59.6792 27.2763 60.0555 27.5456 60.3879 27.9037C60.6982 28.2619 60.94 28.6866 61.0965 29.178C61.2504 29.6694 61.341 30.2052 61.341 30.8104V37.5176C61.341 37.5398 61.319 37.562 61.2971 37.562H60.4346C60.2368 37.562 60.0802 37.5398 59.9703 37.4731C59.8605 37.4065 59.7945 37.2955 59.7259 37.0928L59.5281 36.2433C59.5281 36.1989 59.4842 36.1989 59.4402 36.2211C59.1957 36.446 58.954 36.6458 58.7096 36.8235C58.4431 37.0234 58.1794 37.1816 57.891 37.3149C57.6026 37.4482 57.295 37.562 56.9846 37.6286C56.6522 37.6952 56.2979 37.7397 55.8996 37.7397C55.4793 37.7397 55.103 37.673 54.7267 37.562C54.3723 37.4509 54.04 37.2705 53.7763 37.0262C53.5098 36.7791 53.2901 36.4904 53.1335 36.1323C52.9797 35.7741 52.8891 35.3716 52.8891 34.8802C52.8891 34.4555 52.9989 34.0529 53.2214 33.6726C53.4439 33.2923 53.8175 32.9341 54.3284 32.6454C54.8366 32.3317 55.5013 32.0874 56.3198 31.8847C57.1164 31.6849 58.1108 31.571 59.2836 31.5488C59.3056 31.5488 59.3276 31.5266 59.3276 31.5044V30.766C59.3276 29.9609 59.1518 29.3584 58.8194 28.9781C58.4871 28.5756 57.9789 28.3757 57.3362 28.3757C56.8939 28.3757 56.5176 28.4201 56.2292 28.5311C55.9188 28.6422 55.6771 28.756 55.4546 28.9115C55.2321 29.0447 55.0563 29.1808 54.8805 29.2918C54.7267 29.4029 54.5481 29.4473 54.3723 29.4473C54.2405 29.4473 54.1059 29.4029 54.018 29.3362C53.9081 29.2696 53.8422 29.1808 53.7735 29.0669L53.4824 28.5062ZM59.366 32.8675C58.5475 32.8897 57.8388 32.9563 57.2867 33.0674C56.7126 33.1784 56.2457 33.2923 55.8941 33.4699C55.5397 33.6254 55.2733 33.8281 55.1195 34.0501C54.9657 34.275 54.875 34.5193 54.875 34.8108C54.875 35.0801 54.919 35.3022 55.0069 35.5048C55.0948 35.7047 55.2046 35.863 55.3612 35.974C55.5178 36.0851 55.6936 36.1739 55.8913 36.2433C56.0891 36.3099 56.3116 36.3321 56.5341 36.3321C56.8445 36.3321 57.1301 36.3099 57.3966 36.2433C57.663 36.1767 57.9047 36.0878 58.1272 35.974C58.3497 35.863 58.5695 35.7269 58.77 35.5493C58.9678 35.3938 59.1903 35.1911 59.366 34.9913C59.366 34.9913 59.388 34.9691 59.388 34.9468L59.366 32.8675ZM66.9335 23.5674V37.5398C66.9335 37.562 66.9115 37.5842 66.8896 37.5842H64.964C64.9421 37.5842 64.9201 37.562 64.9201 37.5398V23.634C64.9201 23.6118 64.9421 23.5896 64.964 23.5896L66.9335 23.5674ZM73.9241 37.7424C73.0836 37.7424 72.4189 37.4954 71.9547 37.0262C71.4905 36.557 71.268 35.863 71.268 34.969V28.6644C71.268 28.6422 71.246 28.62 71.224 28.62H70.0511C69.9413 28.62 69.8286 28.5756 69.7627 28.5089C69.6748 28.4423 69.6528 28.3313 69.6528 28.173V27.4124C69.6528 27.3901 69.6748 27.3679 69.6968 27.3679L71.3119 27.1431C71.3339 27.1431 71.3559 27.1209 71.3559 27.0987L71.8201 23.9894C71.8421 23.8783 71.908 23.7895 71.9739 23.7201C72.0618 23.6534 72.1497 23.6312 72.2843 23.6312H73.2567C73.2786 23.6312 73.3006 23.6534 73.3006 23.6757V27.0987C73.3006 27.1209 73.3226 27.1431 73.3446 27.1431H76.2205C76.2424 27.1431 76.2644 27.1653 76.2644 27.1875V28.5506C76.2644 28.5728 76.2424 28.595 76.2205 28.595H73.3446C73.3226 28.595 73.3006 28.6172 73.3006 28.6394V34.8108C73.3006 35.2356 73.4105 35.5493 73.611 35.7492C73.8088 35.949 74.0752 36.0629 74.3856 36.0629C74.5614 36.0629 74.7399 36.0406 74.8718 35.9962C75.0036 35.9518 75.1162 35.8852 75.2261 35.8408C75.314 35.7741 75.4019 35.7297 75.4706 35.6853C75.5365 35.6409 75.6024 35.6187 75.6464 35.6187C75.7123 35.6187 75.7782 35.6409 75.8002 35.6631C75.8442 35.6853 75.8881 35.7519 75.9101 35.8186L76.4842 36.7569C76.5061 36.7791 76.4842 36.8013 76.4842 36.8235C76.1518 37.115 75.7755 37.3371 75.3552 37.5176C74.8745 37.6508 74.4103 37.7424 73.9241 37.7424ZM80.9587 28.3285C81.4009 27.8815 81.8871 27.5012 82.42 27.2319C82.9501 26.9626 83.5709 26.8072 84.2549 26.8072C84.829 26.8072 85.3399 26.896 85.7821 27.0987C86.2243 27.2985 86.5787 27.5678 86.8891 27.9259C87.1775 28.2841 87.4192 28.7088 87.5538 29.2002C87.7076 29.6916 87.7763 30.2524 87.7763 30.8326V37.5398C87.7763 37.562 87.7543 37.5842 87.7323 37.5842H85.8068C85.7849 37.5842 85.7629 37.562 85.7629 37.5398V30.8326C85.7629 30.0719 85.5871 29.4917 85.2547 29.0669C84.9004 28.6422 84.3922 28.4395 83.6835 28.4395C83.1754 28.4395 82.6892 28.5728 82.2222 28.8199C81.78 29.0669 81.3597 29.4001 80.9834 29.8026C80.9834 29.8026 80.9615 29.8248 80.9615 29.847V37.562C80.9615 37.5842 80.9395 37.6064 80.9175 37.6064H79.014C78.992 37.6064 78.97 37.5842 78.97 37.562V23.6562C78.97 23.634 78.992 23.6118 79.014 23.6118H80.9175C80.9395 23.6118 80.9615 23.634 80.9615 23.6562L80.9587 28.3285Z" fill="white"/>
</svg>
