<svg width="117" height="44" viewBox="0 0 117 44" fill="none" xmlns="http://www.w3.org/2000/svg">
<path d="M13.8851 17.0623H9.92578V15.5781H19.4776V17.0623H15.5183V27.5203H13.8851V17.0623Z" fill="white"/>
<path d="M24.2285 24.534L22.9587 27.5193H21.2598L26.4889 15.5771H28.1221L33.3676 27.5193H31.6359L30.366 24.534L29.7891 23.1688L27.2978 17.3172L24.8064 23.1688L24.2285 24.534Z" fill="white"/>
<path d="M47.3252 15.5781V27.5203H45.9723L39.0442 18.6144V27.5203H37.3945V15.5781H38.7475L45.6756 24.484V15.5781H47.3252Z" fill="white"/>
<path d="M63.0283 15.5781V27.5203H61.6753L54.7473 18.6144V27.5203H53.0977V15.5781H54.4506L61.3786 24.484V15.5781H63.0283Z" fill="white"/>
<path d="M75.5831 23.1698L73.0917 17.3181L70.6003 23.1698L70.0234 24.535L68.7536 27.5203H67.0547L72.2838 15.5781H73.917L79.1624 27.5203H77.4308L76.161 24.535L75.5831 23.1698Z" fill="white"/>
<path d="M82.7578 26.445C82.7578 25.7624 83.2689 25.2847 83.8792 25.2847C84.4737 25.2847 84.969 25.7624 84.969 26.445C84.969 27.1276 84.4737 27.6224 83.8792 27.6224C83.2689 27.6224 82.7578 27.1276 82.7578 26.445Z" fill="white"/>
<path d="M91.5502 24.534L90.2807 27.5193H88.582L93.811 15.5771H95.4442L100.69 27.5193H98.958L97.6884 24.534L97.1112 23.1688L94.6197 17.3172L92.1282 23.1688L91.5502 24.534Z" fill="white"/>
<path d="M104.713 15.5781H106.363V27.5203H104.713V15.5781Z" fill="white"/>
</svg>
