<svg width="118" height="44" viewBox="0 0 118 44" fill="none" xmlns="http://www.w3.org/2000/svg">
<path d="M68.295 39.1767L70.1443 33.8446L65.5688 21.0255H69.1193L71.7698 29.3581L74.3949 21.0255H77.9703L73.3948 33.8961L71.6217 39.1772L68.295 39.1767ZM77.839 27.4859C77.839 23.6402 80.6146 20.8201 84.49 20.8201C88.3654 20.8201 91.1405 23.6402 91.1405 27.4859C91.1405 31.3316 88.3654 34.1517 84.49 34.1517C80.6146 34.1517 77.839 31.3316 77.839 27.4859ZM81.3373 27.4859C81.3373 29.6141 82.6124 31.0755 84.4876 31.0755C86.3627 31.0755 87.6379 29.6136 87.6379 27.4859C87.6379 25.3326 86.3632 23.8712 84.4876 23.8712C82.612 23.8712 81.3392 25.3326 81.3392 27.4859H81.3373ZM53.0738 27.4608C53.0738 24.1788 55.0242 20.8201 59.2997 20.8201C63.7501 20.8201 65.5256 24.1788 65.5256 27.1272C65.5256 27.6141 65.5007 27.9989 65.4777 28.281H56.4268C56.6765 30.0991 57.8017 31.2293 59.5518 31.2293C60.9515 31.2293 61.8769 30.6657 62.152 29.563H65.5544C65.0546 32.3576 62.6537 34.1522 59.5537 34.1522C55.2762 34.1517 53.0757 30.7163 53.0757 27.4603L53.0738 27.4608ZM56.4762 26.025H62.0518C62.0415 25.6683 61.9616 25.3174 61.8169 24.9929C61.6722 24.6684 61.4656 24.3769 61.2093 24.1356C60.9529 23.8943 60.6521 23.708 60.3245 23.5879C59.9968 23.4677 59.649 23.416 59.3016 23.4358C57.7264 23.4353 56.7743 24.2304 56.4762 26.025ZM92.7631 33.9473V21.0235H96.2614V23.1773C96.9366 21.5616 97.8869 21.0235 99.4117 21.0235H100.837V23.998H98.7614C97.0363 23.998 96.2614 25.4594 96.2614 27.6643V33.9458L92.7631 33.9473ZM44.9521 33.9473L38.649 16H42.4496L46.7501 29.1272L51.1009 16H54.8766L48.5754 33.9468L44.9521 33.9473ZM23.4786 33.3964C23.0399 33.1336 22.6565 32.7842 22.3504 32.3685C22.0443 31.9527 21.8217 31.4789 21.6954 30.9743C21.5666 30.4706 21.5365 29.9456 21.6067 29.4299C21.6769 28.9141 21.8462 28.4177 22.1047 27.9694L27.8423 17.9636C28.0984 17.5138 28.4391 17.1205 28.8444 16.8066C29.2498 16.4927 29.7118 16.2643 30.2038 16.1346C30.6952 16.0026 31.2072 15.9717 31.7103 16.0438C32.2133 16.116 32.6975 16.2896 33.1347 16.5548C34.017 17.0888 34.6569 17.9598 34.914 18.9769C35.1711 19.9939 35.0244 21.074 34.5062 21.9803L28.7691 31.9871C28.4305 32.5765 27.9491 33.0662 27.3716 33.4086C26.7941 33.751 26.1401 33.9345 25.473 33.9414H25.429C24.7421 33.9416 24.0678 33.7531 23.4762 33.3954L23.4786 33.3964ZM31.1421 16.3725C30.8558 16.3763 30.571 16.4155 30.2939 16.4894C29.8474 16.6068 29.4281 16.8139 29.0602 17.0986C28.6924 17.3834 28.3833 17.7402 28.1509 18.1484L22.4133 28.1547C22.1785 28.5615 22.0247 29.0121 21.9608 29.4803C21.897 29.9486 21.9244 30.4251 22.0414 30.8824C22.156 31.3403 22.358 31.7704 22.6358 32.1477C22.9136 32.525 23.2616 32.842 23.6597 33.0804C24.4622 33.5628 25.4184 33.6992 26.3188 33.4597C27.2192 33.2202 27.9902 32.6243 28.4629 31.8028L34.1985 21.795C34.6692 20.9722 34.8024 19.9916 34.5688 19.0682C34.3352 18.1449 33.754 17.3542 32.9526 16.8698C32.4158 16.5438 31.8034 16.3717 31.1795 16.3715L31.1421 16.3725ZM23.802 32.6868C23.1085 32.2439 22.613 31.5389 22.4225 30.7242C22.232 29.9096 22.3619 29.0507 22.7842 28.3335C22.9988 27.9846 23.2789 27.6829 23.6082 27.4459C23.9375 27.209 24.3094 27.0414 24.7023 26.953C25.0953 26.8646 25.5014 26.8571 25.8972 26.9309C26.293 27.0048 26.6706 27.1585 27.008 27.3832C27.7018 27.8259 28.1976 28.531 28.3882 29.3458C28.5788 30.1607 28.4488 31.0197 28.0263 31.737C27.7563 32.1825 27.3795 32.5497 26.9317 32.8034C26.484 33.057 25.9803 33.1888 25.4687 33.1861C24.8773 33.1855 24.2983 33.012 23.7996 32.6858L23.802 32.6868ZM29.6029 22.567C28.9094 22.1241 28.4138 21.4191 28.2234 20.6044C28.033 19.7897 28.1631 18.9308 28.5855 18.2137C28.8001 17.8648 29.0802 17.5631 29.4094 17.3262C29.7387 17.0892 30.1106 16.9216 30.5035 16.8333C30.8964 16.7449 31.3025 16.7375 31.6983 16.8114C32.094 16.8853 32.4715 17.0391 32.8088 17.2639C33.5027 17.7065 33.9987 18.4116 34.1893 19.2265C34.3798 20.0413 34.2498 20.9004 33.8272 21.6176C33.5572 22.0631 33.1804 22.4302 32.7328 22.6839C32.2851 22.9376 31.7815 23.0694 31.2701 23.0668C30.6793 23.0659 30.1011 22.8926 29.6029 22.567ZM17.0375 21.6176C16.615 20.9004 16.485 20.0414 16.6756 19.2265C16.8662 18.4117 17.362 17.7066 18.0558 17.2639C18.3931 17.0391 18.7706 16.8853 19.1663 16.8114C19.5621 16.7375 19.9682 16.7449 20.3611 16.8333C20.7541 16.9216 21.1259 17.0892 21.4552 17.3262C21.7844 17.5631 22.0645 17.8648 22.2791 18.2137C22.7015 18.9309 22.8315 19.7898 22.641 20.6045C22.4505 21.4192 21.9548 22.1242 21.2612 22.567C20.7632 22.8924 20.1851 23.0655 19.5945 23.0663C19.083 23.0691 18.5793 22.9373 18.1315 22.6836C17.6838 22.4299 17.3069 22.0627 17.037 21.6171L17.0375 21.6176Z" fill="white"/>
</svg>
