<svg width="119" height="44" viewBox="0 0 119 44" fill="none" xmlns="http://www.w3.org/2000/svg">
<path d="M14.4667 17.3022V21.348L9.70685 24.9818L7.25992 26.8398C7.12727 26.5567 7.05859 26.25 7.05859 25.9393V23.9331C7.06937 23.6501 7.13737 23.3722 7.2579 23.1136C7.40806 22.7908 7.63834 22.5071 7.92855 22.2863L14.4667 17.3022Z" fill="white"/>
<path d="M14.4667 28.6041V32.6505L7.93057 27.6703C7.65854 27.4623 7.43903 27.1992 7.28888 26.8995C7.13805 26.5998 7.05927 26.2718 7.05859 25.94V23.9338C7.06937 23.6508 7.13737 23.3729 7.2579 23.1143L9.70685 24.9818L14.4667 28.6041Z" fill="white"/>
<path d="M22.6906 23.9744V25.9408C22.6906 26.2514 22.622 26.5582 22.4886 26.8412L20.0431 24.982L15.2832 21.3533V17.3037L21.8193 22.2852C22.0853 22.4893 22.3008 22.746 22.4516 23.038C22.6018 23.33 22.6839 23.6496 22.6913 23.975L22.6906 23.9744Z" fill="white"/>
<path d="M22.6913 23.9746V25.941C22.6913 26.2735 22.6112 26.6008 22.4604 26.9005C22.3089 27.1996 22.09 27.4633 21.8187 27.6713L15.2832 32.6515V28.6057L20.0431 24.9816L22.4886 23.1172C22.6166 23.3867 22.6853 23.6787 22.6906 23.9746H22.6913Z" fill="white"/>
<path d="M17.8433 25.6241L15.4967 27.3139C15.2361 27.5013 14.9203 27.6034 14.5938 27.6047C14.2685 27.606 13.9507 27.5058 13.6895 27.3204L16.0313 25.6306C16.2919 25.4419 16.6097 25.3392 16.9356 25.3379C17.2629 25.3366 17.5814 25.4374 17.8433 25.6241Z" fill="white"/>
<path d="M14.8562 23.5006L12.515 25.1911C12.255 25.3785 11.9386 25.4805 11.6127 25.4818C11.2861 25.4831 10.9696 25.383 10.707 25.1975L13.0482 23.5077C13.3082 23.3196 13.6246 23.2176 13.9512 23.2163C14.2771 23.215 14.5942 23.3145 14.8555 23.5006H14.8562Z" fill="white"/>
<path d="M19.0435 24.7575L16.7057 26.4492C16.4451 26.6366 16.1286 26.738 15.8027 26.7387C15.4775 26.7387 15.1597 26.6398 14.8984 26.4544L17.2403 24.7646C17.5002 24.5778 17.8154 24.4764 18.1413 24.4751C18.4658 24.4738 18.7829 24.5727 19.0442 24.7575H19.0435Z" fill="white"/>
<path d="M16.3756 24.5353L14.0358 26.2257C13.7752 26.4131 13.458 26.5146 13.1328 26.5158C12.8062 26.5158 12.4898 26.417 12.2285 26.2315L14.5684 24.5417C14.829 24.3543 15.1448 24.2523 15.4713 24.251C15.7979 24.2497 16.1144 24.3498 16.3756 24.5353Z" fill="white"/>
<path d="M16.0561 22.6344L13.7142 24.3242C13.4543 24.5116 13.1378 24.6137 12.8119 24.615C12.4853 24.6162 12.1675 24.5161 11.9062 24.3306L14.2488 22.6408C14.5087 22.4534 14.8245 22.3514 15.1511 22.3501C15.4777 22.3488 15.7941 22.4489 16.0554 22.6344H16.0561Z" fill="white"/>
<path d="M34.7832 27.3284V28.8212L28.5332 25.7862V24.4615L34.7832 21.4355V22.9193L30.3277 25.1239L34.7832 27.3284Z" fill="white"/>
<path d="M43.1835 26.0314H37.6977C37.7583 26.4608 37.9839 26.8536 38.332 27.1327C38.7051 27.4145 39.1724 27.5595 39.6477 27.5416C39.9541 27.5448 40.2571 27.4896 40.5399 27.3785C40.8227 27.2675 41.0793 27.1039 41.2941 26.8966L42.733 27.5416C42.4057 27.9985 41.9627 28.3688 41.4442 28.6172C40.8867 28.8611 40.2753 28.9804 39.6612 28.9657C39.1811 28.9836 38.701 28.9073 38.2532 28.7417C37.8041 28.5761 37.3954 28.3245 37.0533 28.0024C36.7227 27.6872 36.4622 27.3118 36.2891 26.8979C36.1161 26.4839 36.0326 26.0411 36.0447 25.5957C36.0299 25.1413 36.1113 24.6882 36.2844 24.2646C36.4574 23.841 36.7173 23.4547 37.0507 23.1287C37.3752 22.8071 37.7664 22.5543 38.1994 22.3855C38.6337 22.2167 39.099 22.1358 39.5669 22.148C40.0497 22.1301 40.5318 22.2084 40.9823 22.3771C41.4314 22.5459 41.8401 22.802 42.1822 23.1287C42.8535 23.7826 43.1895 24.6471 43.1895 25.7227L43.1835 26.0327V26.0314ZM41.4772 24.7408C41.3648 24.3814 41.1257 24.0702 40.8012 23.859C40.4632 23.6305 40.0585 23.5118 39.645 23.5189C39.1946 23.5112 38.7542 23.6447 38.3913 23.8994C38.1139 24.1266 37.8977 24.4154 37.7644 24.7402H41.4779L41.4772 24.7408Z" fill="white"/>
<path d="M44.5547 22.3131H46.2616V23.0594C46.5316 22.7687 46.8636 22.5351 47.2353 22.3734C47.6029 22.2206 48.0015 22.1436 48.4028 22.1475C48.8089 22.1423 49.2075 22.245 49.5556 22.444C49.9098 22.6564 50.196 22.9587 50.3798 23.3174C50.6316 22.9523 50.9743 22.6526 51.377 22.444C51.7756 22.245 52.2214 22.143 52.6718 22.1475C53.1196 22.1385 53.562 22.2502 53.9478 22.4703C54.2973 22.6648 54.5733 22.9587 54.739 23.311C54.8992 23.6582 54.9794 24.2211 54.9794 24.9996V28.8066H53.259V25.5136C53.259 24.7756 53.1654 24.2788 52.9715 24.0189C52.8738 23.8893 52.7446 23.7847 52.5937 23.7166C52.4429 23.648 52.2766 23.6172 52.1103 23.6281C51.8275 23.6249 51.5514 23.7089 51.3231 23.8668C51.0875 24.033 50.907 24.2621 50.8073 24.5246C50.6727 24.9636 50.6175 25.4206 50.641 25.8775V28.8066H48.9206V25.6625C48.9381 25.2377 48.8937 24.8128 48.7873 24.4001C48.7193 24.171 48.5772 23.9676 48.3813 23.8193C48.1928 23.6877 47.9631 23.6204 47.7295 23.6281C47.4507 23.6255 47.1794 23.7102 46.9558 23.8687C46.7161 24.0401 46.535 24.2763 46.4353 24.5465C46.2986 24.9912 46.2401 25.4552 46.2623 25.9186V28.8072H44.5554V22.3131H44.5547Z" fill="white"/>
<path d="M58.305 19.8071V23.0334C58.5926 22.7548 58.9319 22.5302 59.3056 22.371C59.6713 22.2254 60.0631 22.1522 60.4584 22.156C60.884 22.1528 61.3061 22.2363 61.6953 22.4018C62.0838 22.5674 62.4306 22.8107 62.7134 23.1155C63.3491 23.79 63.6837 24.6744 63.6467 25.5799C63.6736 26.4784 63.3282 27.35 62.6838 28.0059C62.3976 28.3146 62.0455 28.561 61.6522 28.7292C61.2583 28.8973 60.8314 28.984 60.3998 28.982C60.0248 28.9852 59.6517 28.9172 59.305 28.7818C58.9299 28.6278 58.5879 28.4089 58.297 28.1368V28.8229H56.6035V19.8071H58.3057H58.305ZM60.1096 23.6501C59.8605 23.6431 59.612 23.6861 59.3817 23.7765C59.1508 23.867 58.9427 24.0025 58.771 24.1751C58.5905 24.3586 58.4512 24.5749 58.3603 24.8105C58.2687 25.046 58.2283 25.2963 58.2384 25.5472C58.2148 26.0626 58.406 26.5664 58.7717 26.9476C58.942 27.1221 59.1494 27.2601 59.3804 27.3519C59.6113 27.4437 59.8605 27.488 60.111 27.4809C60.3581 27.4854 60.6032 27.4392 60.8308 27.3455C61.0577 27.2518 61.2617 27.1132 61.428 26.9392C61.7701 26.5542 61.9573 26.0664 61.9573 25.562C61.9573 25.0575 61.7694 24.5691 61.428 24.1847C61.259 24.0114 61.0543 23.8741 60.826 23.7817C60.5978 23.6899 60.352 23.645 60.1042 23.6514H60.1116L60.1096 23.6501Z" fill="white"/>
<path d="M71.8959 26.0313H66.4015C66.4621 26.4613 66.6876 26.8541 67.0371 27.1326C67.4101 27.415 67.8774 27.56 68.3542 27.5414C68.6592 27.5446 68.9629 27.4894 69.2436 27.3784C69.5264 27.2674 69.783 27.1037 69.9964 26.8958L71.4381 27.5408C71.1108 27.9977 70.6664 28.368 70.1486 28.6164C69.5897 28.8603 68.9797 28.9797 68.3656 28.9649C67.8842 28.9829 67.4054 28.9065 66.9563 28.7409C66.5085 28.5753 66.0998 28.3238 65.7564 28.0016C65.4244 27.6858 65.1639 27.3085 64.9915 26.8932C64.8184 26.478 64.7363 26.0332 64.7498 25.5859C64.7349 25.1315 64.8164 24.6791 64.9895 24.2549C65.1625 23.8313 65.4224 23.4449 65.7544 23.1189C66.0803 22.798 66.4728 22.5452 66.9058 22.3764C67.3388 22.2076 67.8054 22.1267 68.2734 22.1383C68.7561 22.1203 69.2383 22.198 69.6874 22.3668C70.1365 22.5355 70.5452 22.7916 70.8859 23.1189C71.5586 23.7729 71.8939 24.6374 71.8939 25.7124L71.8966 26.0307L71.8959 26.0313ZM70.1897 24.7407C70.0772 24.3813 69.8382 24.07 69.5137 23.8589C69.1756 23.6304 68.771 23.511 68.3575 23.5194C67.9071 23.5117 67.4667 23.6452 67.1038 23.9C66.8263 24.1272 66.6102 24.416 66.4769 24.7407H70.1904H70.1897Z" fill="white"/>
<path d="M78.2935 19.8071H80.0112V28.8062H78.3056V28.1201C78.0141 28.391 77.674 28.6098 77.3023 28.7651C76.9556 28.9005 76.5839 28.9686 76.2102 28.9653C75.7792 28.9692 75.3523 28.8845 74.9578 28.7176C74.5639 28.5508 74.211 28.305 73.9249 27.9975C73.2791 27.3423 72.9337 26.4701 72.962 25.5716C72.9236 24.668 73.2556 23.7855 73.8885 23.111C74.17 22.8062 74.5167 22.5629 74.9052 22.3974C75.2951 22.2318 75.7159 22.1483 76.1428 22.1522C76.5368 22.1483 76.928 22.2215 77.2916 22.3672C77.6646 22.5257 78.0026 22.7503 78.2861 23.0295L78.2922 19.8078H78.2935V19.8071ZM76.4903 23.6501C76.2432 23.6443 75.9994 23.6893 75.7718 23.781C75.5463 23.8728 75.3422 24.0102 75.1759 24.1834C74.8339 24.5685 74.6453 25.0563 74.6453 25.5607C74.6453 26.0651 74.8339 26.5535 75.1759 26.938C75.3416 27.1119 75.5436 27.2505 75.7705 27.3442C75.9961 27.4379 76.2405 27.4841 76.4876 27.4803C76.7367 27.4867 76.9852 27.443 77.2155 27.3506C77.4451 27.2589 77.6525 27.1209 77.8228 26.9469C78.1858 26.5651 78.377 26.0619 78.3521 25.5466C78.3635 25.2956 78.3225 25.0453 78.2309 24.8098C78.1407 24.5743 78.0013 24.3586 77.8222 24.1744C77.6505 24.0037 77.4444 23.8696 77.2162 23.7791C76.9879 23.6886 76.7435 23.645 76.4957 23.6501H76.4896H76.4903Z" fill="white"/>
<path d="M86.7493 19.8071H88.4562V28.8062H86.7493V28.1201C86.4578 28.3916 86.1184 28.6104 85.746 28.7651C85.4006 28.8999 85.0303 28.9679 84.6566 28.9653C84.2256 28.9673 83.7987 28.8806 83.4048 28.7125C83.0109 28.5443 82.6608 28.2973 82.3753 27.9886C81.7295 27.3333 81.3841 26.4611 81.4124 25.5626C81.3794 24.6616 81.712 23.783 82.343 23.111C82.6244 22.8062 82.9725 22.5629 83.361 22.3974C83.7496 22.2318 84.1717 22.1477 84.598 22.1516C84.9932 22.1477 85.3844 22.2209 85.748 22.3666C86.1204 22.5251 86.4578 22.7497 86.7412 23.0289L86.7486 19.8071H86.7493ZM84.9447 23.6501C84.6976 23.6443 84.4539 23.6893 84.2263 23.781C83.9994 23.8728 83.7954 24.0102 83.6277 24.1834C83.2735 24.5576 83.0857 25.0492 83.1059 25.5536C83.0863 26.0639 83.2762 26.5612 83.6378 26.9386C83.8034 27.1125 84.0054 27.2511 84.2324 27.3448C84.4579 27.4385 84.7023 27.4848 84.9495 27.4809C85.1986 27.4873 85.4471 27.4437 85.6767 27.3513C85.9076 27.2595 86.115 27.1215 86.284 26.9476C86.6483 26.5657 86.8382 26.0626 86.8146 25.5472C86.8261 25.2963 86.785 25.046 86.6934 24.8105C86.6018 24.5749 86.4638 24.3593 86.2834 24.1751C86.113 24.0037 85.9056 23.869 85.6773 23.7785C85.4477 23.688 85.2006 23.6443 84.9542 23.6501H84.9441H84.9447Z" fill="white"/>
<path d="M97.0066 26.0312H91.5121C91.5714 26.4611 91.7983 26.8539 92.1478 27.1324C92.5208 27.4148 92.9881 27.5599 93.4648 27.5413C93.7698 27.5445 94.0735 27.4893 94.3556 27.3783C94.6385 27.2672 94.895 27.1036 95.1098 26.8963L96.5487 27.5413C96.2215 27.9989 95.7771 28.3685 95.2593 28.6169C94.7017 28.8608 94.0917 28.9801 93.4783 28.9654C92.9968 28.9833 92.5168 28.907 92.0676 28.7414C91.6185 28.5758 91.2098 28.3242 90.8671 28.0021C90.5365 27.6857 90.2759 27.3083 90.1028 26.8931C89.9298 26.4778 89.8483 26.0331 89.8611 25.5864C89.8463 25.132 89.9278 24.6796 90.1008 24.2553C90.2725 23.8318 90.5331 23.4454 90.865 23.1194C91.1909 22.7985 91.5835 22.5456 92.0165 22.3769C92.4494 22.2081 92.916 22.1272 93.384 22.1388C93.8668 22.1208 94.3489 22.1991 94.7994 22.3679C95.2485 22.5367 95.6572 22.7927 95.9993 23.1194C96.6706 23.7734 97.0066 24.6378 97.0053 25.7135L97.0079 26.0318H97.0066V26.0312ZM95.2977 24.7405C95.1852 24.3811 94.9462 24.0699 94.6216 23.8587C94.285 23.6296 93.8789 23.5102 93.4655 23.5186C93.015 23.5109 92.5753 23.6444 92.2137 23.8992C91.935 24.1257 91.7202 24.4145 91.5869 24.7399H95.2977V24.7405Z" fill="white"/>
<path d="M103.41 19.8071H105.117V28.8062H103.41V28.1201C103.118 28.3916 102.779 28.6104 102.407 28.7651C102.061 28.8999 101.691 28.9679 101.317 28.9653C100.886 28.9673 100.459 28.8806 100.066 28.7125C99.6716 28.5443 99.3215 28.2973 99.0353 27.9886C98.3909 27.3333 98.0442 26.4611 98.0725 25.5626C98.0401 24.6616 98.3734 23.783 99.0044 23.111C99.2858 22.8062 99.6326 22.5629 100.022 22.3974C100.411 22.2318 100.833 22.1477 101.259 22.1516C101.655 22.1477 102.046 22.2209 102.408 22.3666C102.781 22.5251 103.119 22.7497 103.403 23.0289L103.41 19.8071ZM101.605 23.6501C101.361 23.6463 101.118 23.6925 100.893 23.7849C100.668 23.8773 100.468 24.014 100.302 24.186C99.9477 24.5602 99.7592 25.0518 99.7787 25.5562C99.7578 26.0645 99.945 26.5606 100.302 26.9392C100.468 27.1132 100.671 27.2518 100.896 27.3455C101.122 27.4392 101.368 27.4854 101.614 27.4815C101.863 27.488 102.111 27.4443 102.341 27.3519C102.571 27.2601 102.778 27.1222 102.949 26.9482C103.313 26.5664 103.503 26.0632 103.478 25.5479C103.489 25.2969 103.448 25.0466 103.358 24.8111C103.267 24.5756 103.127 24.3599 102.948 24.1757C102.776 24.0044 102.569 23.869 102.339 23.7785C102.109 23.688 101.862 23.6443 101.613 23.6514H101.604L101.605 23.6501Z" fill="white"/>
<path d="M106.699 22.917V21.4307L112.949 24.4612V25.7858L106.699 28.8227V27.3299L111.161 25.1235L106.699 22.917Z" fill="white"/>
</svg>
